<svg width="24" height="24" viewBox="0 0 24 24" fill="none" xmlns="http://www.w3.org/2000/svg">
<rect width="24" height="24" rx="2" fill="#48C3CC"/>
<path fill-rule="evenodd" clip-rule="evenodd" d="M13.4545 13.0909H19.4545C19.7455 13.0909 20 12.8364 20 12.5455V11.4545C20 11.1636 19.7455 10.9091 19.4545 10.9091H13.4545C13.2364 10.9091 13.0909 10.7636 13.0909 10.5455V4.54545C13.0909 4.25455 12.8364 4 12.5455 4H11.4545C11.1636 4 10.9091 4.25455 10.9091 4.54545V10.5455C10.9091 10.7636 10.7636 10.9091 10.5455 10.9091H4.54545C4.25455 10.9091 4 11.1636 4 11.4545V12.5455C4 12.8364 4.25455 13.0909 4.54545 13.0909H10.5455C10.7636 13.0909 10.9091 13.2364 10.9091 13.4545V19.4545C10.9091 19.7455 11.1636 20 11.4545 20H12.5455C12.8364 20 13.0909 19.7455 13.0909 19.4545V13.4545C13.0909 13.2364 13.2364 13.0909 13.4545 13.0909Z" fill="white"/>
</svg>
