<svg width="17" height="16" viewBox="0 0 17 16" fill="none" xmlns="http://www.w3.org/2000/svg">
<path d="M8.7998 16C13.2332 16 16.7998 12.4334 16.7998 8C16.7998 3.56664 13.2332 0 8.7998 0C4.36645 0 0.799805 3.56664 0.799805 8C0.799805 12.4334 4.36645 16 8.7998 16Z" fill="#2775CA"/>
<path d="M10.9998 9.26665C10.9998 8.10001 10.2998 7.70001 8.89984 7.53337C7.89984 7.40001 7.69984 7.13337 7.69984 6.66665C7.69984 6.19993 8.0332 5.90001 8.69984 5.90001C9.29984 5.90001 9.6332 6.10001 9.79984 6.60001C9.8332 6.70001 9.9332 6.76665 10.0332 6.76665H10.5665C10.6998 6.76665 10.7998 6.66665 10.7998 6.53337V6.50001C10.6665 5.76665 10.0665 5.20001 9.29984 5.13337V4.33337C9.29984 4.20001 9.19984 4.10001 9.0332 4.06665H8.5332C8.39984 4.06665 8.29984 4.16665 8.26648 4.33337V5.10001C7.26648 5.23337 6.6332 5.90001 6.6332 6.73337C6.6332 7.83337 7.29984 8.26665 8.69984 8.43337C9.6332 8.60001 9.9332 8.80001 9.9332 9.33337C9.9332 9.86673 9.46648 10.2334 8.8332 10.2334C7.96648 10.2334 7.66648 9.86665 7.56648 9.36665C7.5332 9.23337 7.4332 9.16665 7.3332 9.16665H6.76648C6.6332 9.16665 6.5332 9.26665 6.5332 9.40001V9.43337C6.66648 10.2667 7.19984 10.8667 8.29984 11.0334V11.8334C8.29984 11.9667 8.39984 12.0667 8.56648 12.1H9.06648C9.19984 12.1 9.29984 12 9.3332 11.8334V11.0334C10.3332 10.8667 10.9998 10.1667 10.9998 9.26665Z" fill="white"/>
<path d="M7.09997 12.7665C4.49997 11.8332 3.16661 8.93325 4.13333 6.36653C4.63333 4.96653 5.73333 3.89989 7.09997 3.39989C7.23333 3.33325 7.29997 3.23325 7.29997 3.06653V2.59989C7.29997 2.46653 7.23333 2.36653 7.09997 2.33325C7.06661 2.33325 6.99997 2.33325 6.96661 2.36653C3.79997 3.36653 2.06661 6.73325 3.06661 9.89989C3.66661 11.7665 5.09997 13.1999 6.96661 13.7999C7.09997 13.8665 7.23333 13.7999 7.26661 13.6665C7.29997 13.6332 7.29997 13.5999 7.29997 13.5332V13.0665C7.29997 12.9665 7.19997 12.8332 7.09997 12.7665ZM10.6333 2.36653C10.5 2.29989 10.3666 2.36653 10.3333 2.49989C10.3 2.53325 10.3 2.56653 10.3 2.63325V3.09989C10.3 3.23325 10.4 3.36653 10.5 3.43325C13.1 4.36653 14.4333 7.26653 13.4666 9.83325C12.9666 11.2333 11.8666 12.2999 10.5 12.7999C10.3666 12.8665 10.3 12.9665 10.3 13.1333V13.5999C10.3 13.7332 10.3666 13.8332 10.5 13.8665C10.5333 13.8665 10.6 13.8665 10.6333 13.8333C13.8 12.8333 15.5333 9.46653 14.5333 6.29989C13.9333 4.39989 12.4666 2.96653 10.6333 2.36653Z" fill="white"/>
</svg>
