<svg width="24" height="24" viewBox="0 0 24 24" fill="none" xmlns="http://www.w3.org/2000/svg">
<rect width="24" height="24" rx="2" fill="#48C3CC"/>
<path fill-rule="evenodd" clip-rule="evenodd" d="M19.0009 12.0581C19.0251 11.5512 18.663 11.4064 18.5182 11.4064H13.2566C12.798 11.4064 12.7256 11.8892 12.7256 11.9374V17.5852H19.0009V12.0581ZM15.3822 16.1129C15.3822 16.3784 15.165 16.5957 14.8995 16.5957H14.4168C14.1513 16.5957 13.9341 16.3784 13.9341 16.1129V15.6302C13.9341 15.3647 14.1513 15.1475 14.4168 15.1475H14.8995C15.165 15.1475 15.3822 15.3647 15.3822 15.6302V16.1129ZM14.8995 14.1338C15.165 14.1338 15.3822 13.9166 15.3822 13.6511V13.1683C15.3822 12.9028 15.165 12.6856 14.8995 12.6856H14.4168C14.1513 12.6856 13.9341 12.9028 13.9341 13.1683V13.6511C13.9341 13.9166 14.1513 14.1338 14.4168 14.1338H14.8995ZM17.7949 16.1129C17.7949 16.3784 17.5777 16.5957 17.3122 16.5957H16.8294C16.5639 16.5957 16.3467 16.3784 16.3467 16.1129V15.6302C16.3467 15.3647 16.5639 15.1475 16.8294 15.1475H17.3122C17.5777 15.1475 17.7949 15.3647 17.7949 15.6302V16.1129ZM17.3122 14.1338C17.5777 14.1338 17.7949 13.9166 17.7949 13.6511V13.1683C17.7949 12.9028 17.5777 12.6856 17.3122 12.6856H16.8294C16.5639 12.6856 16.3467 12.9028 16.3467 13.1683V13.6511C16.3467 13.9166 16.5639 14.1338 16.8294 14.1338H17.3122Z" fill="white"/>
<path fill-rule="evenodd" clip-rule="evenodd" d="M14.1717 6.65167V9.45144C14.1717 9.64453 13.9786 9.93416 13.7131 9.93416H11.8063C11.2753 9.93416 11.2753 10.5134 11.2753 10.5134V17.5853H5V6.53099C5 6.48272 5.07241 6 5.53099 6H13.6889C13.8338 6 14.1958 6.14482 14.1717 6.65167ZM7.17394 16.3543C7.43943 16.3543 7.65665 16.1371 7.65665 15.8716V15.3889C7.65665 15.1234 7.43943 14.9062 7.17394 14.9062H6.69122C6.42572 14.9062 6.2085 15.1234 6.2085 15.3889V15.8716C6.2085 16.1371 6.42572 16.3543 6.69122 16.3543H7.17394ZM7.65665 13.3856C7.65665 13.6511 7.43943 13.8683 7.17394 13.8683H6.69122C6.42572 13.8683 6.2085 13.6511 6.2085 13.3856V12.9029C6.2085 12.6374 6.42572 12.4201 6.69122 12.4201H7.17394C7.43943 12.4201 7.65665 12.6374 7.65665 12.9029V13.3856ZM7.17394 11.4064C7.43943 11.4064 7.65665 11.1892 7.65665 10.9237V10.441C7.65665 10.1755 7.43943 9.95829 7.17394 9.95829H6.69122C6.42572 9.95829 6.2085 10.1755 6.2085 10.441V10.9237C6.2085 11.1892 6.42572 11.4064 6.69122 11.4064H7.17394ZM7.65665 8.46187C7.65665 8.72737 7.43943 8.94459 7.17394 8.94459H6.69122C6.42572 8.94459 6.2085 8.72737 6.2085 8.46187V7.97916C6.2085 7.71366 6.42572 7.49644 6.69122 7.49644H7.17394C7.43943 7.49644 7.65665 7.71366 7.65665 7.97916V8.46187ZM9.82652 16.3543C10.092 16.3543 10.3092 16.1371 10.3092 15.8716V15.3889C10.3092 15.1234 10.092 14.9062 9.82652 14.9062H9.3438C9.07831 14.9062 8.86109 15.1234 8.86109 15.3889V15.8716C8.86109 16.1371 9.07831 16.3543 9.3438 16.3543H9.82652ZM10.3092 13.3856C10.3092 13.6511 10.092 13.8683 9.82652 13.8683H9.3438C9.07831 13.8683 8.86109 13.6511 8.86109 13.3856V12.9029C8.86109 12.6374 9.07831 12.4201 9.3438 12.4201H9.82652C10.092 12.4201 10.3092 12.6374 10.3092 12.9029V13.3856ZM9.82652 11.4064C10.092 11.4064 10.3092 11.1892 10.3092 10.9237V10.441C10.3092 10.1755 10.092 9.95829 9.82652 9.95829H9.3438C9.07831 9.95829 8.86109 10.1755 8.86109 10.441V10.9237C8.86109 11.1892 9.07831 11.4064 9.3438 11.4064H9.82652ZM10.3092 8.46187C10.3092 8.72737 10.092 8.94459 9.82652 8.94459H9.3438C9.07831 8.94459 8.86109 8.72737 8.86109 8.46187V7.97916C8.86109 7.71366 9.07831 7.49644 9.3438 7.49644H9.82652C10.092 7.49644 10.3092 7.71366 10.3092 7.97916V8.46187ZM12.4835 8.94459C12.749 8.94459 12.9662 8.72737 12.9662 8.46187V7.97916C12.9662 7.71366 12.749 7.49644 12.4835 7.49644H12.0008C11.7353 7.49644 11.518 7.71366 11.518 7.97916V8.46187C11.518 8.72737 11.7353 8.94459 12.0008 8.94459H12.4835Z" fill="white"/>
</svg>
