<svg width="31" height="31" viewBox="0 0 31 31" fill="none" xmlns="http://www.w3.org/2000/svg">
<path d="M15.3984 30.1972C23.6827 30.1972 30.3984 23.4814 30.3984 15.1972C30.3984 6.9129 23.6827 0.197174 15.3984 0.197174C7.11417 0.197174 0.398438 6.9129 0.398438 15.1972C0.398438 23.4814 7.11417 30.1972 15.3984 30.1972Z" fill="#1969FF"/>
<path fill-rule="evenodd" clip-rule="evenodd" d="M16.5234 12.2909L19.8984 10.3222V14.2597L16.5234 12.2909ZM19.8984 20.7284L15.3984 23.3534L10.8984 20.7284V16.1347L15.3984 18.7597L19.8984 16.1347V20.7284ZM10.8984 10.3222L14.2734 12.2909L10.8984 14.2597V10.3222ZM15.9609 13.2284L19.3359 15.1972L15.9609 17.1659V13.2284ZM14.8359 17.1659L11.4609 15.1972L14.8359 13.2284V17.1659ZM19.3359 9.38467L15.3984 11.6347L11.4609 9.38467L15.3984 7.04092L19.3359 9.38467ZM9.77344 9.00967V21.2909L15.3984 24.4784L21.0234 21.2909V9.00967L15.3984 5.82217L9.77344 9.00967Z" fill="white"/>
</svg>
