<svg width="24" height="24" viewBox="0 0 24 24" fill="none" xmlns="http://www.w3.org/2000/svg">
<rect width="24" height="24" rx="2" fill="#48C3CC"/>
<path fill-rule="evenodd" clip-rule="evenodd" d="M17.5125 5H6.4875C5.67083 5 5 5.67083 5 6.4875V17.4833C5 18.3292 5.67083 19 6.4875 19H17.4833C18.3 19 18.9708 18.3292 18.9708 17.5125V6.4875C19 5.67083 18.3292 5 17.5125 5ZM8.99401 15.9958C8.99401 16.2583 8.76068 16.4917 8.49818 16.4917H8.00234C7.73984 16.4917 7.50651 16.2583 7.50651 15.9958V13.2542C7.50651 12.9917 7.73984 12.7583 8.00234 12.7583H8.49818C8.76068 12.7583 8.99401 12.9917 8.99401 13.2542V15.9958ZM11.5051 15.9958C11.5051 16.2583 11.2717 16.4917 11.0092 16.4917H10.5134C10.2509 16.4917 10.0176 16.2583 10.0176 15.9958V9.49165C10.0176 9.22915 10.2509 8.99582 10.5134 8.99582H11.0092C11.2717 8.99582 11.5051 9.22915 11.5051 9.49165V15.9958ZM14.0116 15.9958C14.0116 16.2583 13.7783 16.4917 13.5158 16.4917H13.0199C12.7574 16.4917 12.5241 16.2583 12.5241 15.9958V8.00416C12.5241 7.74166 12.7574 7.50833 13.0199 7.50833H13.5158C13.7783 7.50833 14.0116 7.74166 14.0116 8.00416V15.9958ZM16.4908 15.9958C16.4908 16.2583 16.2574 16.4917 15.9949 16.4917H15.4991C15.2366 16.4917 15.0033 16.2583 15.0033 15.9958V11.2417C15.0033 10.9792 15.2366 10.7458 15.4991 10.7458H15.9949C16.2574 10.7458 16.4908 10.9792 16.4908 11.2417V15.9958Z" fill="white"/>
</svg>
