<svg width="24" height="24" viewBox="0 0 24 24" fill="none" xmlns="http://www.w3.org/2000/svg">
<rect width="24" height="24" rx="2" fill="#48C3CC"/>
<path fill-rule="evenodd" clip-rule="evenodd" d="M18.5543 6.16527C18.5543 4.9728 15.7397 4 12.2781 4C8.81652 4 6.00195 4.9728 6.00195 6.16527V6.91841C6.00195 8.11088 8.81652 9.08368 12.2781 9.08368C15.7397 9.08368 18.5543 8.11088 18.5543 6.91841V6.16527ZM6.00195 8.67574C6.00195 9.61717 8.81652 10.3703 12.2781 10.3703C15.7397 10.3703 18.5543 9.61717 18.5543 8.67574V10.2134C18.5543 11.4059 15.7397 12.3787 12.2781 12.3787C8.81652 12.3787 6.00195 11.4059 6.00195 10.2134V8.67574ZM12.2781 13.6653C8.81652 13.6653 6.00195 12.9121 6.00195 11.9707V13.5398C6.00195 14.7322 8.81652 15.6737 12.2781 15.6737C15.7397 15.6737 18.5543 14.7009 18.5543 13.5084V11.9707C18.5543 12.9121 15.7397 13.6653 12.2781 13.6653ZM12.2781 16.9916C8.81652 16.9916 6.00195 16.2385 6.00195 15.2971V16.8347C6.00195 18.0272 8.81652 19 12.2781 19C15.7397 19 18.5543 18.0272 18.5543 16.8347V15.2971C18.5543 16.2385 15.7397 16.9916 12.2781 16.9916Z" fill="white"/>
</svg>
