<svg width="19" height="26" viewBox="0 0 19 26" fill="none" xmlns="http://www.w3.org/2000/svg">
<path d="M3.13207 18.1657C3.22016 16.8553 3.19499 15.5075 3.35229 14.166C3.44038 13.4359 3.59769 12.7121 3.66061 11.982C3.74241 10.9836 3.64173 9.98527 3.61656 8.98066C3.61027 8.68739 3.57881 8.39412 3.65432 8.10084C3.69207 7.95109 3.7487 7.79509 3.906 7.76389C4.17656 7.7015 4.10106 7.55174 4.04443 7.3895C3.98151 7.20855 3.92488 7.02759 3.85567 6.85288C3.47814 5.93562 3.79904 5.11197 4.25836 4.33823C4.64847 3.6768 5.15814 3.08402 5.69297 2.52868C6.29072 1.90469 7.03319 1.5927 7.9078 1.58022C8.0714 1.58022 8.23499 1.57398 8.40488 1.5615C8.48668 1.55526 8.56847 1.55526 8.65656 1.54902C8.73207 1.54278 8.81387 1.54902 8.88937 1.53654C8.91454 1.5303 8.93971 1.52406 8.96488 1.51782C9.00892 1.51782 9.05297 1.5303 9.09072 1.5303C9.1851 1.54278 9.27319 1.55526 9.36758 1.57398C9.55005 1.60518 9.73252 1.63638 9.91499 1.67382C10.2799 1.74246 10.6386 1.82981 10.9972 1.92341C11.1923 1.97333 11.3873 2.02949 11.5698 2.12309C11.9033 2.30404 12.1424 2.60979 12.4633 2.80947C12.6835 2.94674 12.9289 3.02786 13.1303 3.1901C13.3568 3.37105 13.5015 3.62689 13.6399 3.88272C13.7909 4.15727 13.942 4.43182 14.0426 4.73134C14.0678 4.80621 14.093 4.88733 14.1118 4.96221C14.1873 5.28044 14.2251 5.60491 14.2629 5.92938C14.3006 6.24761 14.3447 6.57209 14.4516 6.87784C14.4768 6.95272 14.5082 7.02759 14.5397 7.10247C14.5523 7.13367 14.5712 7.16487 14.5775 7.19607C14.5775 7.23975 14.5712 7.28343 14.5712 7.32711C14.5649 8.26932 14.4831 9.2053 14.4642 10.1475C14.4327 11.67 14.3258 13.1925 14.1559 14.7088C14.1244 14.9771 14.1622 15.2392 14.2251 15.495C14.4076 16.2563 14.4642 17.0176 14.3509 17.8038C14.2566 18.4652 14.2566 19.1453 14.2125 19.8193C14.1936 20.1188 14.03 20.2436 13.7343 20.2498C13.3882 20.256 13.0736 20.1125 12.7276 20.1063C12.2431 20.0938 11.7775 20.2061 11.3056 20.256C10.5127 20.3309 9.7451 20.1874 8.96488 20.0938C8.82645 20.0813 8.69432 20.0189 8.55589 20.0252C8.41117 20.0252 8.27274 20.0314 8.12802 20.0252C8.05881 20.0189 7.9896 20.0189 7.92038 20.0002C7.87634 19.9877 7.84488 19.969 7.80083 19.9628C7.61207 19.944 7.42331 19.944 7.23454 19.9316C7.04578 19.9253 6.85701 19.9128 6.66825 19.9066C6.29072 19.8879 5.9069 19.8754 5.52937 19.8629C5.15185 19.8504 4.76803 19.838 4.3905 19.8255C4.29612 19.8255 4.20173 19.8193 4.10735 19.8193C4.01926 19.8193 3.91859 19.8005 3.8305 19.813C3.80533 19.8193 3.78016 19.8317 3.76128 19.838C3.67319 19.8629 3.56623 19.8504 3.47814 19.8317C3.20128 19.7569 3.13207 19.4636 3.12578 19.214C3.11949 19.0455 3.13836 18.877 3.14465 18.7086C3.13207 18.5401 3.13207 18.3716 3.13207 18.1657Z" fill="#6B00FA" stroke="#362745" stroke-width="0.5" stroke-miterlimit="10"/>
<path d="M14.7409 23.4009C14.6906 23.7254 14.7347 24.0936 14.6403 24.443C14.6025 24.5803 14.5711 24.7113 14.42 24.7675C14.2753 24.8174 14.1747 24.755 14.1054 24.6302C14.0551 24.5428 13.967 24.5491 13.8789 24.5428C13.1679 24.4992 12.4569 24.4555 11.7522 24.418C9.32342 24.2932 6.90095 24.1684 4.47218 24.0436C3.79263 24.0124 3.11308 23.9937 2.43353 23.9563C2.25106 23.9438 1.88611 23.9563 1.84207 23.7129C1.82949 23.6381 1.78544 23.5757 1.76656 23.5008C1.72252 23.3448 1.71623 23.1763 1.71623 23.0141C1.70364 22.6397 1.69735 22.2591 1.68477 21.8847C1.68477 21.8223 1.68477 21.7599 1.67847 21.6975C1.67847 21.6538 1.66589 21.6288 1.64701 21.5976C1.60297 21.504 1.64072 21.398 1.70364 21.3231C1.78544 21.2232 1.8987 21.1796 2.01825 21.2295C2.40836 21.373 2.81735 21.3418 3.21376 21.3668C5.07623 21.4728 6.94499 21.554 8.81376 21.6413C10.5126 21.7224 12.2052 21.8098 13.9041 21.8971C14.4893 21.9283 14.7158 22.1655 14.7158 22.752C14.7158 22.9579 14.7284 23.1638 14.7409 23.4009Z" fill="#4300BF" stroke="#362745" stroke-width="0.5" stroke-miterlimit="10"/>
<path d="M9.32347 20.0625C8.75088 20.0437 8.17201 20.0188 7.60572 19.9377C7.24077 19.8815 6.88841 19.8004 6.52347 19.7505C6.13336 19.7006 5.73066 19.6943 5.34055 19.6881C4.74279 19.6756 4.13246 19.6694 3.55358 19.8129C2.9747 19.9564 2.40841 20.2746 2.1001 20.7863C2.64751 21.1856 3.36482 21.2356 4.04437 21.273C4.45965 21.298 4.87493 21.3167 5.29021 21.3416C8.35448 21.5101 11.4187 21.6786 14.483 21.6848C14.3886 21.3978 14.2943 21.1045 14.1936 20.8175C14.1055 20.5617 13.9796 20.2621 13.6776 20.1997C13.577 20.181 13.4763 20.1997 13.3756 20.206C13.1994 20.206 13.017 20.1935 12.8408 20.1873C12.092 20.1623 11.337 20.1311 10.5882 20.1061C10.1666 20.0937 9.74504 20.0749 9.32347 20.0625Z" fill="#6B00FA" stroke="#362745" stroke-width="0.5" stroke-miterlimit="10"/>
<path d="M16.2887 19.5384C16.3831 19.4885 16.49 19.4385 16.5467 19.3512C16.6033 19.2638 16.6096 19.1578 16.6159 19.0579C16.641 18.6461 16.6662 18.2405 16.6914 17.8287C16.7228 17.3669 16.748 16.9052 16.7417 16.4434C16.7354 16.0066 16.6914 15.5698 16.7165 15.1393C16.7417 14.74 16.8235 14.3468 16.8676 13.9475C17.0249 12.5373 16.6914 11.1146 16.7543 9.69817C16.7795 9.17402 16.8613 8.64988 16.8927 8.11949C16.9871 6.69057 16.7354 5.23669 16.1691 3.92008C16.1188 3.80777 16.0685 3.69545 15.9741 3.62057C15.8482 3.52073 15.6783 3.50825 15.5399 3.42714C15.3449 3.30858 15.2694 3.07147 15.1624 2.86555C14.8981 2.35389 14.3947 2.00446 13.8473 1.81102C13.2999 1.61759 12.721 1.56143 12.1485 1.50527C11.7458 1.46783 11.3431 1.43039 10.9404 1.38671C10.7453 1.36799 10.4622 1.43039 10.4936 1.62383C11.0725 2.05437 11.7395 2.36637 12.3498 2.75323C12.9601 3.1401 13.539 3.63305 13.8285 4.29447C13.9543 4.57527 14.0172 4.88102 14.0801 5.18677C14.2689 6.06035 14.4514 6.93392 14.4954 7.82622C14.5269 8.47516 14.4828 9.13034 14.4388 9.78552C14.3822 10.6404 14.3444 11.5015 14.3067 12.3563C14.2689 13.2112 14.2437 14.0723 14.2312 14.9271C14.2123 15.7882 14.206 16.6431 14.2123 17.498C14.2123 17.9285 14.2186 18.3591 14.2249 18.7834C14.2249 18.9955 14.2312 19.2139 14.2374 19.4261C14.2437 19.6257 14.2249 19.8441 14.25 20.05C14.2941 20.3558 14.6401 20.3121 14.8541 20.2185C15.2442 20.05 15.6217 19.8504 16.0118 19.6632C16.081 19.6382 16.2195 19.5384 16.2887 19.5384Z" fill="#4300BF" stroke="#362745" stroke-width="0.5" stroke-miterlimit="10"/>
<path d="M14.6465 21.61C14.6717 21.6536 14.7031 21.7036 14.7535 21.7036C14.7849 21.7036 14.8164 21.6848 14.8415 21.6724C15.131 21.4789 15.3701 21.2169 15.6847 21.0733C15.8986 20.9735 16.1314 20.9361 16.3517 20.8612C16.6663 20.7551 16.9494 20.5742 17.2326 20.3994C17.3332 20.337 17.4465 20.2434 17.4276 20.1249C17.4213 20.0812 17.3961 20.0438 17.371 20.0126C17.2137 19.8004 17.0249 19.6195 16.811 19.4697C16.7669 19.4385 16.7229 19.4135 16.6726 19.4073C16.6096 19.4011 16.5467 19.4323 16.4901 19.4572C16.0308 19.6819 15.5777 19.9065 15.1247 20.1374C14.8982 20.2497 14.6717 20.3682 14.4451 20.4806C14.2564 20.5742 14.0991 20.6428 14.2249 20.8674C14.3696 21.117 14.5206 21.3604 14.6465 21.61Z" fill="#100342" stroke="#362745" stroke-width="0.5" stroke-miterlimit="10"/>
<path d="M14.8481 24.2932C14.8544 24.3369 14.8607 24.3868 14.8859 24.418C14.9551 24.4929 15.0747 24.4492 15.1628 24.3993C15.9241 23.975 16.6855 23.5507 17.4468 23.1264C17.5223 23.0827 17.6041 23.039 17.6544 22.9641C17.7048 22.883 17.7111 22.7832 17.7174 22.6896C17.7425 22.1842 17.7614 21.6787 17.7866 21.1671C17.7929 21.0236 17.7929 20.8676 17.7111 20.7552C17.623 20.6304 17.4531 20.593 17.3021 20.6117C17.1511 20.6304 17.0126 20.7053 16.8805 20.7802C16.2702 21.1171 15.6598 21.4479 15.0495 21.7786C14.8481 21.8909 14.6028 21.9658 14.6216 22.2278C14.6405 22.5336 14.6908 22.8393 14.7223 23.1389C14.7412 23.3323 14.7663 23.5195 14.7852 23.7129C14.8041 23.9064 14.8481 24.106 14.8481 24.2932Z" fill="#100342" stroke="#362745" stroke-width="0.5" stroke-miterlimit="10"/>
<path d="M11.4 4.71248C11.5196 4.81232 11.507 5.01823 11.3811 5.11183C11.2553 5.20543 11.054 5.14303 10.9973 4.99951C10.9407 4.856 11.0477 4.67504 11.1987 4.65008C11.2679 4.64384 11.3434 4.66256 11.4 4.71248Z" fill="#4300BF"/>
<path d="M12.4193 5.59246C12.413 5.62365 12.4067 5.64861 12.4067 5.67981C12.413 5.73597 12.4508 5.77965 12.5011 5.79837C12.6333 5.86701 12.8283 5.76717 12.8472 5.61742C12.8598 5.46766 12.6962 5.32414 12.5515 5.36782C12.5389 5.36158 12.52 5.37406 12.5137 5.38654C12.4571 5.45518 12.4445 5.51758 12.4193 5.59246Z" fill="#4300BF"/>
<path d="M11.7964 6.47229C11.702 6.47229 11.6077 6.47229 11.5196 6.47229C11.4944 6.47229 11.4692 6.47229 11.4504 6.49101C11.4378 6.50349 11.4378 6.52221 11.4315 6.54093C11.4189 6.61581 11.4126 6.68445 11.4063 6.75933C11.4 6.84668 11.4 6.959 11.4755 7.00268C11.5259 7.02764 11.5825 7.0214 11.6328 7.03388C11.6769 7.04636 11.7146 7.07132 11.7587 7.06508C11.8468 7.06508 11.9034 6.97148 11.9223 6.88412C11.9411 6.79052 11.9474 6.69693 11.9034 6.60957C11.8593 6.52221 11.7713 6.45981 11.6769 6.47229" fill="#4300BF"/>
<path d="M16.0436 9.1865C15.9806 9.1241 15.9051 9.13034 15.8233 9.1553C15.7478 9.18026 15.7038 9.25514 15.7101 9.33001C15.7101 9.39241 15.7541 9.45481 15.7982 9.49849C15.8674 9.56713 15.9932 9.50473 16.0436 9.44233C16.1065 9.37993 16.1065 9.26138 16.0436 9.1865Z" fill="#6B00FA"/>
<path d="M15.6031 10.2347C15.5968 10.1972 15.5716 10.1348 15.5402 10.1036C15.5024 10.0662 15.4269 10.0849 15.3829 10.1036C15.3451 10.1224 15.3074 10.1473 15.2759 10.1785C15.2633 10.191 15.2507 10.1972 15.2444 10.216C15.2256 10.2472 15.2193 10.2784 15.213 10.3158C15.213 10.3345 15.1941 10.4219 15.213 10.4344C15.2885 10.4843 15.3892 10.4968 15.4772 10.4593C15.5528 10.4156 15.6157 10.322 15.6031 10.2347Z" fill="#6B00FA"/>
<path d="M4.76157 18.1221C4.64202 18.1221 4.52876 18.1782 4.47214 18.2781C4.41551 18.3779 4.43438 18.5214 4.52247 18.5963C4.61685 18.6774 4.92517 18.6712 5.01326 18.5901C5.10135 18.5089 4.9818 18.3654 4.93146 18.2469C4.85595 18.2032 4.77416 18.1595 4.69236 18.1221" fill="#4300BF"/>
<path d="M4.21429 16.0565C4.17654 16.1564 4.14508 16.2562 4.1262 16.3623C4.11991 16.381 4.11991 16.406 4.1325 16.4247C4.15137 16.4559 4.18912 16.4621 4.22688 16.4684C4.32126 16.4746 4.42823 16.4746 4.48485 16.406C4.50373 16.3873 4.51632 16.3561 4.52261 16.3311C4.55407 16.2313 4.53519 16.1127 4.4471 16.0565C4.35901 16.0004 4.22059 16.0316 4.20171 16.1314" fill="#4300BF"/>
<path d="M5.61722 17.08C5.60463 17.0488 5.57947 16.9989 5.548 16.9864C5.52913 16.9802 5.49767 16.9864 5.4725 16.9864C5.44733 16.9864 5.42845 16.9864 5.40329 16.9864C5.38441 16.9864 5.36553 16.9864 5.35295 16.9927C5.32778 17.0051 5.30261 17.0426 5.28374 17.0613C5.27115 17.0675 5.26486 17.0738 5.25857 17.0863C5.23969 17.1175 5.2334 17.1611 5.2334 17.1986C5.2334 17.2111 5.2334 17.3109 5.24598 17.3109C5.3089 17.3234 5.52913 17.3421 5.59205 17.3546C5.6298 17.3608 5.52284 17.3733 5.5543 17.3483C5.56688 17.3358 5.57947 17.3234 5.59205 17.3046C5.62351 17.2298 5.64239 17.1487 5.61722 17.08Z" fill="#4300BF"/>
<path d="M11.7838 23.7815C11.9033 23.8689 12.0984 23.8439 12.1802 23.7191C12.2431 23.6255 12.2305 23.507 12.2116 23.3946C12.2053 23.3634 12.1991 23.3322 12.1802 23.3135C12.1613 23.2948 12.1298 23.2886 12.0984 23.2886C12.0103 23.2761 11.9348 23.2823 11.8467 23.2823C11.8341 23.2823 11.8215 23.2823 11.8089 23.2823C11.7775 23.2948 11.746 23.3198 11.7209 23.3447C11.6579 23.4071 11.6328 23.482 11.6516 23.5694C11.6705 23.6505 11.7146 23.7316 11.7838 23.7815Z" fill="#6B00FA"/>
<path d="M10.9843 22.5646C10.8963 22.602 10.8522 22.7081 10.8837 22.7954C10.934 22.8391 10.9969 22.8766 11.0661 22.8828C11.1354 22.889 11.2109 22.8454 11.2234 22.7767C11.236 22.7206 11.2046 22.6707 11.1731 22.6207C11.1417 22.5708 11.1039 22.5209 11.0473 22.5022C10.9906 22.4897 10.9151 22.5396 10.9403 22.5958" fill="#6B00FA"/>
<path d="M15.3952 18.2344C15.2946 18.2032 15.1813 18.2469 15.1121 18.3218C15.0429 18.4029 15.0114 18.509 15.0051 18.6088C14.9988 18.665 15.0051 18.7211 15.0366 18.7648C15.0806 18.8209 15.1624 18.8272 15.2316 18.8085C15.3701 18.7835 15.4959 18.6837 15.5337 18.5526C15.5714 18.4216 15.4833 18.2531 15.3449 18.2344C15.4456 18.2219 15.326 18.1658 15.3952 18.2344Z" fill="#6B00FA"/>
<path d="M15.8421 16.6555C15.71 16.6805 15.5841 16.7741 15.5715 16.9051C15.559 17.0361 15.71 17.1609 15.8295 17.0985C15.9491 16.9862 15.9365 16.7678 15.8106 16.6618" fill="#6B00FA"/>
<path d="M11.7082 3.95128C11.6327 3.97 11.6013 4.06984 11.6327 4.13848C11.6642 4.20712 11.746 4.24456 11.8278 4.24456C11.8655 4.24456 11.9096 4.23208 11.9284 4.20088C11.9347 4.18216 11.941 4.16344 11.941 4.14472C11.941 4.07608 11.941 4.0012 11.9222 3.93257C11.8529 3.92633 11.7837 3.92633 11.7145 3.93881" fill="#100342"/>
<path d="M11.0159 5.05561C10.9593 5.06185 10.8964 5.06809 10.846 5.09305C10.7957 5.11801 10.7516 5.17417 10.7579 5.23033C10.7642 5.30521 10.846 5.35513 10.9152 5.38632C10.9719 5.41128 11.0474 5.43624 11.0977 5.39256C11.148 5.34889 11.1292 5.27401 11.1669 5.21785C11.1795 5.19913 11.1984 5.18041 11.2047 5.15545C11.211 5.11177 11.1606 5.08057 11.1166 5.07433C11.0725 5.06809 11.0222 5.06185 11.0033 5.02441" fill="#100342"/>
<path d="M10.0786 3.70801C10.022 3.73921 9.9591 3.78289 9.92764 3.83904C9.86472 3.94512 9.91505 4.1136 10.0346 4.13856C10.1542 4.16352 10.2611 4.05744 10.324 3.95136C10.3303 3.93888 10.3366 3.9264 10.3366 3.91392C10.3366 3.90144 10.324 3.88896 10.3115 3.88272C10.2422 3.8328 10.173 3.78289 10.1038 3.73921C10.0849 3.72673 10.0535 3.71425 10.0409 3.73921" fill="#100342"/>
<path d="M5.22731 4.80619C5.19585 4.88107 5.18327 4.96842 5.18956 5.05578C5.24619 5.08698 5.3154 5.08074 5.37203 5.05578C5.42866 5.02458 5.47271 4.9809 5.51046 4.92474C5.51675 4.91226 5.52934 4.89978 5.52934 4.88107C5.52934 4.85611 5.51675 4.83115 5.49788 4.81243C5.46012 4.76875 5.40979 4.73755 5.35316 4.73131C5.29653 4.72507 5.23361 4.76875 5.22731 4.81867" fill="#100342"/>
<path d="M4.9443 5.82328C4.89396 5.84824 4.88767 5.92936 4.91913 5.97303C4.95689 6.01671 5.01981 6.03543 5.07644 6.02919C5.11419 6.02295 5.15823 6.01047 5.17082 5.97927C5.19599 5.92936 5.15823 5.8732 5.12048 5.83576C5.08273 5.79208 5.0261 5.74216 4.96318 5.76088" fill="#100342"/>
<path d="M7.4924 2.61596C7.46724 2.67836 7.46724 2.75323 7.48611 2.82187C7.51757 2.87179 7.59308 2.88427 7.64341 2.85307C7.69375 2.82187 7.71892 2.75947 7.71263 2.69708C7.70004 2.62844 7.62454 2.5598 7.56162 2.591" fill="#100342"/>
<path d="M13.0171 8.71857C12.973 8.79345 12.9919 8.90577 13.0674 8.95569C13.1429 9.00561 13.2562 8.98065 13.3002 8.90577C13.3254 8.86833 13.3254 8.81217 13.3128 8.76849C13.2876 8.70609 13.2184 8.66242 13.1492 8.66242C13.08 8.65618 13.0108 8.68738 12.9604 8.73105C12.9856 8.73729 13.0045 8.74977 13.0297 8.75601" fill="#100342"/>
<path d="M12.608 17.8847C12.6017 17.9783 12.5576 18.0657 12.5576 18.1593C12.5576 18.2529 12.6205 18.359 12.7149 18.359C12.7967 18.359 12.8533 18.2841 12.8911 18.2154C12.9226 18.1718 12.9477 18.1218 12.9729 18.0782C12.9918 18.0532 13.0044 18.022 12.9918 17.9908C12.9855 17.9783 12.9729 17.9659 12.9603 17.9596C12.8533 17.891 12.7212 17.8598 12.5891 17.866" fill="#100342"/>
<path d="M12.608 17.8847C12.6017 17.9783 12.5576 18.0657 12.5576 18.1593C12.5576 18.2529 12.6205 18.359 12.7149 18.359C12.7967 18.359 12.8533 18.2841 12.8911 18.2154C12.9226 18.1718 12.9477 18.1218 12.9729 18.0782C12.9918 18.0532 13.0044 18.022 12.9918 17.9908C12.9855 17.9783 12.9729 17.9659 12.9603 17.9596C12.8533 17.891 12.7212 17.8598 12.5891 17.866" stroke="#362745" stroke-width="0.5" stroke-miterlimit="10"/>
<path d="M12.0542 16.8052C12.0857 16.8739 12.136 16.9425 12.2052 16.9612C12.3248 16.9987 12.4632 16.8552 12.4129 16.7428C12.3625 16.6305 12.1612 16.6243 12.1108 16.7428" fill="#100641"/>
<path d="M9.48709 18.4777C9.44305 18.59 9.53743 18.7273 9.65698 18.746C9.77653 18.7647 9.89608 18.6649 9.92754 18.5463C9.93383 18.5276 9.93383 18.5026 9.92125 18.4839C9.90866 18.4652 9.88979 18.4589 9.86462 18.4527C9.76395 18.4277 9.65698 18.4028 9.55631 18.3716C9.54372 18.4028 9.53114 18.4402 9.52485 18.4714" fill="#100641"/>
<path d="M4.7867 13.9724C4.77411 14.0285 4.75524 14.0847 4.76782 14.1408C4.77411 14.197 4.81187 14.2532 4.8685 14.2656C4.93142 14.2844 5.00063 14.2344 5.0258 14.172C5.05097 14.1096 5.05097 14.041 5.04468 13.9786C4.96917 13.9661 4.89366 13.9536 4.82445 13.9412" fill="#100342"/>
<path d="M4.18886 22.3774C4.1637 22.4585 4.14482 22.5646 4.21403 22.6208C4.28954 22.6832 4.3965 22.627 4.49089 22.6457C4.50976 22.5708 4.51606 22.4897 4.49718 22.4148C4.4783 22.34 4.42167 22.2651 4.34617 22.2526C4.27066 22.2339 4.18257 22.2963 4.18886 22.3774C4.20145 22.3774 4.22662 22.3774 4.24549 22.3774H4.18886Z" fill="#100641"/>
<path d="M5.62354 22.9204C5.62354 23.0203 5.62354 23.1139 5.62983 23.2137C5.69904 23.2262 5.77455 23.2324 5.85005 23.2449C5.86893 23.2449 5.8941 23.2512 5.91297 23.2387C5.93185 23.2262 5.93814 23.2012 5.94443 23.1763C5.9696 23.0702 5.9696 22.9516 5.8941 22.8705C5.81859 22.7957 5.655 22.8144 5.64241 22.9204" fill="#100641"/>
<path d="M12.1232 23.095C12.054 23.1512 12.0162 23.251 12.054 23.3321C12.0917 23.4132 12.205 23.4569 12.2805 23.4008C12.312 23.3321 12.3434 23.2572 12.3309 23.1824C12.3183 23.1075 12.2176 23.0513 12.1547 23.1012" fill="#100641"/>
<path d="M15.5717 23.1076C15.5591 23.1575 15.5528 23.2137 15.5717 23.2636C15.5905 23.3135 15.6598 23.3447 15.7038 23.3135C15.7227 23.301 15.729 23.2823 15.7353 23.2636C15.7604 23.2074 15.773 23.1513 15.7667 23.0951C15.7604 23.0389 15.7164 22.9828 15.6598 22.9766C15.6031 22.9703 15.5402 23.0265 15.5591 23.0764" fill="#100641"/>
<path d="M15.2315 15.6009C15.2189 15.6571 15.2001 15.7133 15.2126 15.7694C15.2252 15.8256 15.2693 15.8817 15.3259 15.8755C15.414 15.8755 15.4517 15.7694 15.4643 15.6821C15.4769 15.6072 15.4769 15.5073 15.4077 15.4761C15.3322 15.4449 15.263 15.5261 15.2189 15.5885" fill="#100641"/>
<path d="M15.8675 6.19143C15.8549 6.24759 15.8486 6.30999 15.8737 6.35991C15.8989 6.40983 15.9681 6.44103 16.0185 6.40983C16.0436 6.39735 16.0562 6.37239 16.0688 6.34743C16.0877 6.29751 16.1066 6.24759 16.094 6.19767C16.0814 6.14775 16.0436 6.09783 15.9933 6.09159C15.943 6.08535 15.8863 6.13527 15.8989 6.18519" fill="#100342"/>
<path d="M15.521 7.02755C15.521 7.09619 15.521 7.15859 15.5273 7.22722C15.6217 7.2397 15.7161 7.17107 15.7286 7.07747C15.7412 6.98387 15.6657 6.89027 15.5713 6.88403C15.5776 6.92771 15.565 6.97139 15.5462 7.00883" fill="#100342"/>
<path d="M16.3519 7.18362C16.3267 7.25226 16.3078 7.32714 16.3204 7.40202C16.333 7.47689 16.4085 7.53929 16.4777 7.52681C16.5721 7.50809 16.591 7.37706 16.5847 7.27722C16.5784 7.20858 16.5721 7.12746 16.5155 7.09002C16.4588 7.05258 16.3519 7.09626 16.377 7.15866" fill="#100342"/>
<path d="M6.60526 14.2842C6.71222 13.9098 6.51088 13.5729 6.22144 13.2359C5.7747 12.718 5.36571 12.1751 5.27133 11.4513C5.06369 9.81649 5.98234 8.21909 7.49874 7.63879C9.09065 7.02728 10.8524 7.57639 11.8026 8.97411C12.2241 9.59185 12.4381 10.272 12.4381 11.0208C12.4381 11.7072 12.2178 12.2999 11.7333 12.7929C11.5005 13.0238 11.3055 13.2921 11.0601 13.5105C10.8021 13.7351 10.7077 13.9909 10.7266 14.3154C10.7392 14.5712 10.7077 14.8271 10.714 15.0829C10.714 15.1016 10.714 15.1203 10.714 15.1328C10.714 15.1578 10.7077 15.1765 10.7077 15.1952C10.7077 15.2077 10.7077 15.3263 10.714 15.3263C10.67 15.3263 10.6259 15.3263 10.5882 15.3325C10.5378 15.3325 10.4875 15.3387 10.4372 15.3325C10.3428 15.32 10.2547 15.32 10.1603 15.3138C10.1414 15.3138 10.1226 15.3138 10.0974 15.3075C10.0596 15.3075 10.0282 15.3013 9.99043 15.3013C9.97784 15.3013 9.96526 15.2951 9.94638 15.2951C9.92751 15.2951 9.90863 15.2951 9.88975 15.2951C9.82054 15.2951 9.74503 15.2951 9.66953 15.2951C9.66953 15.2576 9.66324 15.2202 9.66324 15.1827C9.65694 15.1079 9.65694 15.033 9.65694 14.9581C9.65694 14.8146 9.65065 14.6711 9.65065 14.5276C9.65065 14.5213 9.65065 14.5151 9.64436 14.5088C9.63807 14.5026 9.63178 14.5026 9.62548 14.5026C9.47447 14.4901 9.32346 14.5026 9.17245 14.5213C9.17245 14.6087 9.17245 14.696 9.16616 14.7896C9.16616 14.8146 9.16616 14.8396 9.16616 14.8645C9.16616 14.902 9.16616 14.9331 9.15987 14.9706C9.15987 14.9831 9.15357 14.9893 9.15357 14.9955C9.14728 15.008 9.14728 15.0267 9.14728 15.0392C9.14099 15.1079 9.14099 15.1827 9.15357 15.2514C9.10953 15.2514 9.06548 15.2514 9.01515 15.2514C8.95852 15.2514 8.8956 15.2514 8.83897 15.2389C8.76975 15.2264 8.69425 15.2327 8.62503 15.2264C8.59987 15.2264 8.5684 15.2264 8.54324 15.2202C8.47402 15.2202 8.40481 15.2077 8.3356 15.2077C8.29784 15.2077 8.26638 15.2077 8.22863 15.2077C8.22234 15.2077 8.12796 15.2139 8.12166 15.2202C8.12166 15.1578 8.12796 15.0891 8.12796 15.0267C8.12796 14.9955 8.12796 14.9643 8.13425 14.9269C8.13425 14.8957 8.14054 14.8645 8.14054 14.8333C8.14054 14.7085 8.14054 14.5837 8.13425 14.4527C7.97065 14.4215 7.80076 14.409 7.63088 14.409C7.62458 14.5525 7.61829 14.696 7.60571 14.8396C7.59942 14.9082 7.59942 14.9831 7.59312 15.0579C7.59312 15.0767 7.59312 15.0954 7.59312 15.1141C7.59312 15.1266 7.59312 15.1391 7.58683 15.1453C7.58054 15.1578 7.54908 15.1578 7.53649 15.1578C7.4484 15.164 7.35402 15.1578 7.26593 15.1515C7.22818 15.1515 7.18413 15.1453 7.14638 15.1453C7.04571 15.1391 6.94503 15.1391 6.84436 15.1328C6.8129 15.1328 6.77515 15.1266 6.74369 15.1266C6.72481 15.1203 6.70593 15.1141 6.68076 15.1141C6.67447 15.1141 6.5738 15.1079 6.5738 15.1079C6.5738 15.1016 6.5738 15.0954 6.5738 15.0891C6.5738 15.0205 6.5738 14.9456 6.5738 14.8708C6.5738 14.8396 6.56751 14.8084 6.58009 14.7772C6.58638 14.7647 6.58009 14.7522 6.58009 14.7397C6.58009 14.7085 6.58009 14.6773 6.58009 14.6461C6.58009 14.565 6.58638 14.4901 6.58638 14.409C6.59897 14.409 6.59897 14.384 6.60526 14.2842ZM8.64391 13.1361C8.70054 13.1423 8.75717 13.1423 8.8138 13.1486C8.90189 13.1548 8.99627 13.161 9.08436 13.1735C9.0529 13.0799 9.02144 12.9863 8.98369 12.899C8.9711 12.8615 8.95222 12.8303 8.93964 12.7991C8.92706 12.7679 8.90818 12.743 8.8956 12.7118C8.8893 12.7055 8.8893 12.6931 8.8893 12.6868C8.88301 12.6556 8.87043 12.6307 8.86414 12.5995C8.83267 12.5246 8.80751 12.4435 8.77605 12.3623C8.76346 12.3249 8.75088 12.2937 8.732 12.2563C8.732 12.2625 8.71942 12.2812 8.71942 12.2812C8.71312 12.2937 8.70054 12.3062 8.69425 12.3187C8.61245 12.431 8.53694 12.5433 8.46773 12.6619C8.42998 12.718 8.39852 12.7804 8.36076 12.8428C8.34189 12.874 8.3293 12.9052 8.31043 12.9302C8.30414 12.9426 8.29784 12.9551 8.29155 12.9676C8.28526 12.9926 8.26009 13.0175 8.24121 13.0425C8.21605 13.0737 8.19088 13.1049 8.172 13.1423C8.172 13.1423 8.19088 13.1423 8.19717 13.1423C8.20346 13.1423 8.21605 13.1423 8.22234 13.1423C8.24121 13.1423 8.26009 13.1423 8.27897 13.1423C8.31672 13.1423 8.34818 13.1423 8.38593 13.1361C8.39852 13.1361 8.41739 13.1298 8.42998 13.1298C8.44885 13.1298 8.46773 13.1298 8.48661 13.1361C8.52436 13.1361 8.55582 13.1423 8.59357 13.1423C8.61245 13.1298 8.63133 13.1298 8.64391 13.1361Z" fill="#362745" stroke="#362745" stroke-width="0.5" stroke-miterlimit="10"/>
<path d="M6.46032 14.1096C6.56099 13.7414 6.36594 13.4107 6.08279 13.08C5.64234 12.5683 5.23965 12.0379 5.15156 11.3328C4.95021 9.7292 5.84998 8.16925 7.33493 7.60142C8.89538 7.0024 10.6194 7.53902 11.5569 8.91179C11.9659 9.51705 12.1799 10.1847 12.1862 10.9148C12.1862 11.5887 11.9722 12.169 11.494 12.6494C11.2675 12.8803 11.0787 13.1424 10.8334 13.3483C10.5817 13.5667 10.4873 13.8163 10.5062 14.1408C10.5187 14.3904 10.4873 14.64 10.4936 14.8895C10.4936 14.9083 10.4936 14.9207 10.4936 14.9395C10.4936 14.9582 10.4873 14.9831 10.4873 15.0019C10.4873 15.0143 10.4873 15.1267 10.4936 15.1267C10.4495 15.1267 10.4118 15.1267 10.3677 15.1267C10.3174 15.1267 10.2671 15.1329 10.2167 15.1267C10.1286 15.1142 10.0343 15.1142 9.94616 15.1079C9.92729 15.1079 9.90841 15.1079 9.88953 15.1017C9.85178 15.1017 9.82032 15.0955 9.78257 15.0955C9.76998 15.0955 9.7574 15.0892 9.74481 15.0892C9.72594 15.0892 9.70706 15.0892 9.68818 15.0892C9.61897 15.0892 9.54347 15.0892 9.47425 15.0892C9.47425 15.0518 9.46796 15.0206 9.46796 14.9831C9.46167 14.9083 9.46167 14.8396 9.46167 14.7647C9.46167 14.6212 9.45538 14.484 9.45538 14.3404C9.45538 14.3342 9.45538 14.328 9.44908 14.3217C9.44279 14.3155 9.4365 14.3155 9.43021 14.3155C9.28549 14.303 9.13448 14.3155 8.98976 14.3342C8.98976 14.4216 8.98976 14.5089 8.98347 14.5963C8.98347 14.6212 8.98347 14.6462 8.98347 14.6712C8.98347 14.7024 8.98347 14.7398 8.97717 14.7772C8.97717 14.7897 8.97088 14.7959 8.97088 14.8022C8.96459 14.8147 8.96459 14.8334 8.96459 14.8459C8.9583 14.9145 8.9583 14.9831 8.97088 15.0518C8.92684 15.0518 8.88279 15.0518 8.83875 15.0518C8.78212 15.0518 8.72549 15.0518 8.66886 15.0393C8.59965 15.0268 8.53043 15.0331 8.45493 15.0268C8.42976 15.0268 8.3983 15.0268 8.37313 15.0206C8.30392 15.0206 8.24099 15.0081 8.17178 15.0081C8.13403 15.0081 8.10257 15.0081 8.06481 15.0081C8.05852 15.0081 7.96414 15.0143 7.96414 15.0206C7.96414 14.9582 7.97043 14.8958 7.97043 14.8271C7.97043 14.7959 7.97043 14.7647 7.97672 14.7336C7.97672 14.7024 7.98302 14.6712 7.98302 14.64C7.98302 14.5152 7.98302 14.3904 7.97672 14.2656C7.81313 14.2406 7.64953 14.2219 7.48594 14.2219C7.47965 14.3654 7.47335 14.5027 7.46706 14.6462C7.46077 14.7148 7.46077 14.7897 7.45448 14.8583C7.45448 14.8771 7.45448 14.8958 7.45448 14.9145C7.45448 14.927 7.45448 14.9395 7.44819 14.9457C7.44189 14.9582 7.41043 14.9582 7.39785 14.9582C7.30976 14.9644 7.22167 14.9582 7.13358 14.9519C7.09583 14.9519 7.05178 14.9457 7.01403 14.9457C6.91335 14.9395 6.81268 14.9395 6.7183 14.9332C6.68684 14.9332 6.65538 14.927 6.61762 14.927C6.59875 14.927 6.57987 14.9145 6.5547 14.9145C6.54841 14.9145 6.45403 14.9083 6.45403 14.9083C6.45403 14.902 6.45403 14.8958 6.45403 14.8895C6.45403 14.8209 6.45403 14.746 6.45403 14.6774C6.45403 14.6462 6.44774 14.615 6.46032 14.59C6.46661 14.5776 6.46032 14.5651 6.46032 14.5526C6.46032 14.5214 6.46032 14.4902 6.46032 14.459C6.46032 14.3841 6.46661 14.303 6.46661 14.2281C6.45403 14.2281 6.45403 14.2094 6.46032 14.1096ZM8.46122 12.9802C8.51785 12.9864 8.57448 12.9864 8.62481 12.9926C8.7129 12.9989 8.80099 13.0051 8.88908 13.0176C8.85762 12.9302 8.83245 12.8366 8.7947 12.743C8.78212 12.7056 8.76324 12.6744 8.75066 12.6432C8.73807 12.612 8.7192 12.587 8.70661 12.5558C8.70032 12.5496 8.70032 12.5371 8.70032 12.5309C8.69403 12.4997 8.68144 12.4747 8.67515 12.4435C8.64369 12.3687 8.61852 12.2875 8.58706 12.2127C8.57448 12.1752 8.56189 12.144 8.54302 12.1066C8.54302 12.1128 8.53043 12.1253 8.53043 12.1315C8.52414 12.144 8.51156 12.1565 8.50526 12.169C8.42976 12.2813 8.35425 12.3936 8.28504 12.5059C8.24729 12.5621 8.21583 12.6245 8.18436 12.6806C8.16549 12.7118 8.1529 12.7368 8.13403 12.768C8.12774 12.7805 8.12144 12.793 8.11515 12.8054C8.10886 12.8304 8.08369 12.8554 8.06481 12.8741C8.03965 12.9053 8.02077 12.9365 7.9956 12.9677C7.9956 12.9677 8.01448 12.9677 8.02077 12.9677C8.02706 12.9677 8.03965 12.9677 8.04594 12.9677C8.06481 12.9677 8.08369 12.9677 8.10257 12.9677C8.14032 12.9677 8.17178 12.9677 8.20953 12.9614C8.22212 12.9614 8.24099 12.9552 8.25358 12.9552C8.27245 12.9552 8.29133 12.9552 8.31021 12.9614C8.34796 12.9614 8.37942 12.9677 8.41717 12.9677C8.42976 12.9802 8.44863 12.9802 8.46122 12.9802Z" fill="#E0E3BD" stroke="#362745" stroke-width="0.5" stroke-miterlimit="10"/>
<path d="M10.8963 7.96343C9.74485 7.05242 8.44238 6.90266 7.09587 7.50169C4.93766 8.46262 4.35879 11.308 5.65497 12.7244C5.83744 12.9241 5.97587 13.155 6.16463 13.3546C6.33452 13.5356 6.39115 13.729 6.37856 13.9724C6.35969 14.3093 6.32823 14.6525 6.37856 15.0207L7.48598 15.0706L7.50485 14.2906L7.93272 14.3031V14.3093C7.93272 14.3156 7.93272 14.3218 7.93272 14.3281C7.93272 14.3343 7.93272 14.3468 7.93272 14.353C7.93272 14.3655 7.93272 14.378 7.93272 14.3842C7.93272 14.3967 7.93272 14.4092 7.93272 14.4217C7.93272 14.4341 7.93272 14.4529 7.93272 14.4653C7.93272 14.4841 7.93272 14.4965 7.93272 14.5153C7.93272 14.534 7.93272 14.5527 7.93272 14.5714C7.93272 14.5901 7.93272 14.6089 7.93272 14.6276C7.93272 14.6463 7.93272 14.665 7.93272 14.6837C7.93272 14.7025 7.93272 14.7212 7.93272 14.7399C7.93272 14.7586 7.93272 14.7773 7.93272 14.796C7.93272 14.8148 7.93272 14.8272 7.93272 14.846C7.93272 14.8584 7.93272 14.8772 7.93272 14.8959C7.93272 14.9084 7.93272 14.9271 7.93272 14.9396C7.93272 14.952 7.93272 14.9645 7.93272 14.977C7.93272 14.9832 7.93272 14.9957 7.93272 15.0082C7.93272 15.0144 7.93272 15.0207 7.93272 15.0269C7.93272 15.0456 7.92643 15.0644 7.92643 15.0893C7.93272 15.0893 7.93272 15.0893 7.93901 15.0893H7.9453H7.9516C7.95789 15.0893 7.97047 15.0893 7.97676 15.0893C7.99564 15.0893 8.01452 15.0893 8.03339 15.0893C8.1089 15.0893 8.17811 15.0956 8.25362 15.0956C8.34171 15.1018 8.43609 15.1018 8.53047 15.108C8.61227 15.1143 8.70036 15.1143 8.78216 15.1205C8.83249 15.1205 8.88283 15.1268 8.93946 15.1268C8.94575 15.1268 8.95205 15.1268 8.95834 15.1268C8.97092 15.1268 8.97721 15.1268 8.9898 15.1205C8.9898 15.1018 8.99609 15.0768 8.99609 15.0581V15.0519C8.99609 15.0456 8.99609 15.0332 9.00238 15.0269C9.00238 15.0082 9.00867 14.9895 9.00867 14.977C9.00867 14.9645 9.00867 14.952 9.00867 14.9396C9.00867 14.9271 9.00867 14.9146 9.00867 14.9084C9.00867 14.8959 9.00867 14.8896 9.00867 14.8772C9.00867 14.8647 9.00867 14.8522 9.00867 14.8397C9.00867 14.8272 9.00867 14.8085 9.00867 14.7898C9.00867 14.7711 9.00867 14.7524 9.00867 14.7399C9.00867 14.7212 9.00867 14.7025 9.00867 14.6837C9.00867 14.665 9.00867 14.6463 9.00867 14.6276C9.00867 14.6089 9.00867 14.5901 9.00867 14.5714C9.00867 14.5527 9.00867 14.534 9.00867 14.5153C9.00867 14.5028 9.00867 14.4841 9.00867 14.4653C9.00867 14.4529 9.00867 14.4404 9.00867 14.4279C9.00867 14.4154 9.00867 14.4092 9.00867 14.3967C9.00867 14.3905 9.00867 14.3842 9.00867 14.378V14.3717L9.43654 14.3842L9.41766 15.158C9.48688 15.158 10.5817 15.2079 10.5817 15.2079C10.5817 14.9832 10.5817 14.7586 10.5817 14.5277C10.5817 14.4217 10.5817 14.3156 10.5817 14.2095C10.5817 14.1783 10.5817 14.1471 10.5754 14.1221C10.5754 14.0473 10.5754 13.9724 10.588 13.9038C10.6006 13.8289 10.6258 13.7478 10.6761 13.6854C10.6887 13.6729 10.7013 13.6542 10.7138 13.6417C10.7327 13.623 10.7453 13.6105 10.7642 13.5918C10.7956 13.5606 10.8271 13.5231 10.8586 13.4919C10.9215 13.4233 10.9844 13.3609 11.0473 13.2922C11.1102 13.2236 11.1669 13.1612 11.2298 13.0926C11.2927 13.0239 11.3493 12.9615 11.406 12.8929C11.4626 12.8243 11.5255 12.7619 11.5822 12.6932C11.6388 12.6246 11.6954 12.5622 11.752 12.4936C11.7835 12.4624 11.8087 12.4249 11.8401 12.3937C12.0541 12.1316 12.2051 11.8384 12.2554 11.5014C12.4819 10.06 12.0352 8.86197 10.8963 7.96343ZM7.32867 14.0847C7.31609 14.0847 7.30351 14.0847 7.28463 14.0847C7.27834 14.0847 7.27205 14.0847 7.26575 14.0847C7.26575 14.1159 7.26575 14.1471 7.26575 14.1783C7.26575 14.2407 7.25946 14.3093 7.25946 14.3717C7.25317 14.5028 7.24688 14.6401 7.24688 14.7711L6.68688 14.7461C6.68688 14.69 6.69317 14.6338 6.69317 14.5777C6.69946 14.4529 6.70575 14.3281 6.70575 14.197C6.71205 14.066 6.71834 13.9287 6.71834 13.7977C6.71834 13.7478 6.72463 13.6978 6.72463 13.6479C6.72463 13.623 6.71834 13.598 6.71834 13.5793C6.71834 13.5543 6.71205 13.5294 6.71205 13.5044C6.71205 13.4919 6.70575 13.4857 6.70575 13.4732C6.69946 13.467 6.69946 13.4545 6.69317 13.4482C6.68688 13.4295 6.68059 13.4108 6.668 13.3921C6.64912 13.3546 6.63025 13.3172 6.61137 13.2798C6.59249 13.2423 6.56733 13.2111 6.54216 13.1737C6.52957 13.155 6.5107 13.13 6.49182 13.1113C6.22755 12.7931 5.97587 12.4624 5.72418 12.1316C5.36553 11.6449 5.30261 11.0771 5.37182 10.503C5.52912 9.2114 6.20867 8.27543 7.42306 7.79496C8.62485 7.32073 9.76373 7.52041 10.7201 8.37526C11.6954 9.2426 12.0541 10.347 11.7395 11.6387C11.664 11.9694 11.45 12.2065 11.2361 12.4436C10.9718 12.7369 10.7013 13.0239 10.4307 13.311C10.4181 13.3234 10.4055 13.3297 10.3992 13.3422C10.3992 13.3484 10.3992 13.3484 10.3929 13.3546C10.3867 13.3609 10.3867 13.3671 10.3804 13.3734C10.3741 13.3858 10.3615 13.3983 10.3552 13.4108C10.3489 13.417 10.3489 13.4233 10.3426 13.4295C10.3363 13.4358 10.3363 13.4358 10.3363 13.442C10.3237 13.467 10.3111 13.4919 10.2986 13.5169C10.2734 13.573 10.2608 13.6354 10.2482 13.6978C10.2419 13.729 10.2419 13.7602 10.2419 13.7914C10.2419 13.8039 10.2419 13.8226 10.2419 13.8351C10.2419 13.8414 10.2419 13.8476 10.2419 13.8601C10.2419 13.8726 10.2419 13.885 10.2419 13.8975C10.2419 13.9162 10.2419 13.9412 10.2419 13.9599C10.2419 13.9974 10.2419 14.0285 10.2419 14.066C10.2419 14.1346 10.2419 14.2095 10.2419 14.2781C10.2419 14.3468 10.2419 14.4217 10.2419 14.4903C10.2419 14.5589 10.2419 14.6338 10.2419 14.7025C10.2419 14.7399 10.2419 14.7711 10.2419 14.8085C10.2419 14.8272 10.2419 14.846 10.2419 14.8647C10.2419 14.8709 10.2419 14.8772 10.2419 14.8834V14.8896C10.2356 14.8959 10.2293 14.8896 10.2293 14.8896C10.2231 14.8896 10.2105 14.8896 10.2042 14.8896C10.1727 14.8896 10.135 14.8896 10.1035 14.8834C9.96508 14.8772 9.82665 14.8709 9.68822 14.8647C9.69452 14.7461 9.69452 14.6276 9.70081 14.5153C9.70081 14.4778 9.7071 14.4341 9.7071 14.3967C9.7071 14.3468 9.7071 14.3031 9.7071 14.2532C9.7071 14.2345 9.7071 14.222 9.7071 14.2033L9.6253 14.1908C9.59384 14.1845 9.56238 14.1783 9.53092 14.1783C9.46171 14.1721 9.39879 14.1658 9.32957 14.1596C9.26036 14.1533 9.19115 14.1533 9.12193 14.1533C9.05272 14.1533 8.98351 14.1533 8.91429 14.1533C8.85766 14.1533 8.79474 14.1533 8.73811 14.1533L8.71294 14.8709L8.15294 14.846L8.17811 14.1409C8.14665 14.1346 8.1089 14.1284 8.07744 14.1221C8.00823 14.1097 7.9453 14.1034 7.87609 14.0972C7.80688 14.0909 7.73766 14.0909 7.66845 14.0847C7.59924 14.0847 7.53002 14.0847 7.46081 14.0785C7.42935 14.0785 7.3916 14.0785 7.36014 14.0785" fill="#362745"/>
<path d="M8.72548 12.0006C8.71919 11.9943 8.71919 11.9819 8.7129 11.9756C8.70031 11.9569 8.69402 11.9319 8.68144 11.9132C8.67514 11.9007 8.66885 11.8883 8.66256 11.8758C8.65627 11.8633 8.64998 11.8571 8.64368 11.8446C8.61851 11.8071 8.59964 11.7635 8.57447 11.726C8.56188 11.7073 8.55559 11.6886 8.54301 11.6636C8.54301 11.6574 8.53672 11.6512 8.53672 11.6512C8.53672 11.6449 8.53042 11.6387 8.53042 11.6387C8.52413 11.6387 8.52413 11.6387 8.52413 11.6449C8.52413 11.6512 8.51784 11.6512 8.51784 11.6574C8.51784 11.6636 8.51155 11.6699 8.51155 11.6761C8.50526 11.6886 8.49896 11.7011 8.49267 11.7073C8.4675 11.7447 8.44233 11.7884 8.42346 11.8259C8.39829 11.8633 8.37312 11.907 8.35424 11.9444C8.32278 11.9943 8.29762 12.0443 8.26615 12.1004C8.25357 12.1191 8.24728 12.1379 8.23469 12.1503C8.22211 12.1691 8.20953 12.1878 8.20323 12.2065C8.19065 12.2252 8.17806 12.2439 8.16548 12.2689C8.1529 12.2876 8.14031 12.3126 8.12773 12.3313C8.11514 12.3563 8.10256 12.375 8.08997 12.3999C8.07739 12.4249 8.06481 12.4436 8.05222 12.4686C8.03964 12.4935 8.02705 12.5185 8.01447 12.5372C8.00189 12.5622 7.9893 12.5871 7.97672 12.6058C7.96413 12.6308 7.95155 12.6495 7.93896 12.6745C7.92638 12.6994 7.91379 12.7182 7.90121 12.7431C7.88863 12.7681 7.87604 12.7868 7.86346 12.8118C7.85087 12.8305 7.83829 12.8554 7.82571 12.8742C7.81312 12.8929 7.80054 12.9116 7.79424 12.9303C7.78166 12.949 7.77537 12.9678 7.76278 12.9865C7.75649 13.0052 7.74391 13.0177 7.73762 13.0364C7.73132 13.0489 7.71874 13.0614 7.71245 13.0801C7.70615 13.0926 7.69986 13.105 7.69357 13.1175C7.68728 13.1238 7.68099 13.1362 7.68099 13.1425C7.67469 13.1487 7.67469 13.155 7.6684 13.1612L7.66211 13.1674H7.6684C7.70615 13.1674 7.73762 13.1674 7.77537 13.1737C7.78166 13.1737 7.78795 13.1737 7.80054 13.1737C7.80683 13.1737 7.81941 13.1737 7.82571 13.1737C7.832 13.1737 7.832 13.1737 7.83829 13.1737C7.84458 13.1737 7.85087 13.1737 7.85717 13.1737C7.86346 13.1737 7.86975 13.1737 7.88233 13.1737C7.88863 13.1737 7.90121 13.1737 7.9075 13.1737C7.92009 13.1737 7.93267 13.1737 7.93896 13.1737C7.95155 13.1737 7.96413 13.1737 7.97672 13.1737C7.9893 13.1737 8.00189 13.1737 8.01447 13.1737C8.02705 13.1737 8.04593 13.1737 8.05851 13.1737C8.0711 13.1737 8.08997 13.1737 8.10256 13.1737C8.12144 13.1737 8.13402 13.1737 8.1529 13.1737C8.17177 13.1737 8.18436 13.1737 8.20323 13.1737C8.22211 13.1737 8.24099 13.1737 8.25357 13.1737C8.27245 13.1737 8.29132 13.1737 8.3102 13.1737C8.32908 13.1737 8.34795 13.1737 8.36683 13.1737C8.38571 13.1737 8.40458 13.1737 8.42346 13.1737C8.44233 13.1737 8.46121 13.1737 8.48009 13.1737C8.49896 13.1737 8.51784 13.1737 8.53672 13.1737C8.55559 13.1737 8.57447 13.1737 8.59335 13.1737C8.61222 13.1737 8.6311 13.1737 8.64997 13.1737C8.66885 13.1737 8.68773 13.1737 8.7066 13.1737C8.72548 13.1737 8.74436 13.1737 8.75694 13.1737C8.77582 13.1737 8.7884 13.1737 8.80728 13.1737C8.82615 13.1737 8.83874 13.1737 8.85762 13.1737C8.8702 13.1737 8.88908 13.1737 8.90166 13.1737C8.91424 13.1737 8.93312 13.1737 8.94571 13.1737C8.95829 13.1737 8.97087 13.1737 8.98346 13.1737C8.99604 13.1737 9.00863 13.1737 9.02121 13.1737C9.0338 13.1737 9.04009 13.1737 9.05267 13.1737L9.27919 13.1799C9.28548 13.1799 9.28548 13.1799 9.28548 13.1799C9.2729 13.1425 9.25402 13.1113 9.24144 13.0738C9.20368 12.9865 8.73177 12.0131 8.72548 12.0006C8.72548 12.0068 8.72548 12.0068 8.72548 12.0006ZM8.07739 12.9428C8.2284 12.687 8.36683 12.4561 8.52413 12.1878C8.6311 12.4748 8.71919 12.6994 8.82615 12.974C8.56818 12.9615 8.35424 12.949 8.07739 12.9428Z" fill="#362745"/>
<path d="M4.50977 8.13184C4.50977 8.16303 4.51606 8.18799 4.51606 8.21295L4.50977 8.13184ZM4.50977 8.13184C4.50977 8.16303 4.51606 8.18799 4.51606 8.21295L4.50977 8.13184Z" fill="#E0E3BD"/>
<path d="M4.50977 8.13184C4.50977 8.16303 4.51606 8.18799 4.51606 8.21295M4.50977 8.13184C4.50977 8.16303 4.51606 8.18799 4.51606 8.21295L4.50977 8.13184Z" stroke="#362745" stroke-width="2" stroke-miterlimit="10"/>
<path d="M17.8303 20.0499C17.5094 19.7941 17.2703 19.4634 16.9683 19.1764C16.9872 18.8581 17.0249 18.5711 17.0249 18.2841C17.0186 17.4979 17.069 16.7116 17.006 15.9254C16.9683 15.445 17.1004 14.9832 17.2326 14.5215C17.4905 13.6416 17.3458 12.7369 17.2137 11.8695C17.1193 11.2518 17.1067 10.6528 17.1508 10.0413C17.1948 9.50463 17.2011 8.96801 17.2451 8.43138C17.3018 7.67012 17.371 6.92134 17.1759 6.15384C17.006 5.5049 16.9683 4.82476 16.704 4.20077C16.4964 3.71407 16.4964 3.71407 15.8546 2.87169C15.282 2.27267 15.1939 2.26643 14.7031 1.97315C14.3256 1.74852 13.9544 1.53637 13.495 1.49269C12.9099 1.43653 12.3687 1.18069 11.7899 1.0871C10.7831 0.924862 9.78896 1.01222 8.7948 1.16198C7.46087 1.36789 6.14581 1.62372 5.1202 2.63458C4.6357 3.11504 4.13862 3.57055 3.93098 4.23821C3.87435 4.42541 3.74851 4.58764 3.65413 4.75612C3.21997 5.48618 3.32064 5.81689 3.25772 6.76534C3.29548 6.83398 3.16963 7.24581 3.12559 7.35813C3.06896 7.99459 3.06267 7.589 3.06896 7.86356C3.08784 8.69345 3.09413 9.52335 3.10042 10.347C3.10671 11.0958 3.13817 11.8446 2.99975 12.5809C2.84873 13.3608 2.86132 14.1471 2.85503 14.9333C2.85503 15.108 2.86132 15.289 2.81727 15.4574C2.68514 16.044 2.7166 16.6305 2.74806 17.2171C2.79211 18.0158 2.75435 18.8082 2.84873 19.6256C2.38312 19.9875 1.92379 20.3495 1.45817 20.6989C1.29458 20.8174 1.2002 20.9485 1.2002 21.1606C1.21278 22.0405 1.21278 22.9203 1.21907 23.8001C1.21907 24.0372 1.33233 24.1682 1.57772 24.187C2.7166 24.2556 3.84918 24.3242 4.98177 24.3991C6.45413 24.4927 7.92019 24.5801 9.39255 24.6737C11.06 24.7797 12.7274 24.8921 14.3948 24.9981C14.6213 25.0106 14.829 24.9607 15.024 24.8421C15.8986 24.318 16.7795 23.7938 17.6604 23.2822C17.8744 23.1574 17.9561 22.9951 17.9561 22.7518C17.9624 21.9843 17.9813 21.2168 18.0002 20.4555C18.0002 20.2995 17.9687 20.156 17.8303 20.0499ZM3.35211 16.1064C3.42761 15.5822 3.49682 15.0643 3.48424 14.5339C3.46536 13.8476 3.54716 13.1737 3.64784 12.4998C3.78626 11.5638 3.73593 10.6216 3.71705 9.67935C3.71076 9.33616 3.70446 8.99296 3.71076 8.65601C3.71076 8.56866 3.71705 8.4813 3.72334 8.39394C3.72963 8.34402 3.73593 8.2941 3.73593 8.23794C3.73593 8.21299 3.7548 8.19427 3.77368 8.17555C3.79885 8.14435 3.83031 8.11315 3.85548 8.08195C3.86177 8.07571 3.86806 8.06947 3.88064 8.06323C3.88694 8.06323 3.89952 8.06323 3.90581 8.06947C4.01907 8.11939 4.21413 8.30034 4.22042 8.31282C4.22042 8.31906 4.44694 8.48754 4.44694 8.49378C4.45323 8.50002 4.30851 8.81201 4.30851 8.82449C4.57907 8.82449 4.50986 8.73713 4.73008 8.34402C4.74267 8.31906 4.50986 8.16307 4.50986 8.13187C4.47211 8.09443 4.45952 8.04451 4.44064 8.00083C4.42177 7.94467 4.39031 7.89475 4.35885 7.85108C4.33997 7.82612 4.32109 7.8074 4.30222 7.78244C4.28334 7.76372 4.26446 7.745 4.24559 7.72628C4.233 7.7138 4.22671 7.70132 4.22671 7.6826C4.22042 7.65764 4.20784 7.63892 4.20154 7.61396C4.17637 7.5578 4.15121 7.4954 4.13233 7.43301C4.08828 7.31445 4.05053 7.18965 4.01278 7.06486C3.97503 6.94006 3.93727 6.81526 3.89323 6.69047C3.86806 6.62183 3.84289 6.55943 3.81772 6.49079C3.86177 5.90425 3.97503 5.34266 4.36514 4.86844C4.45323 4.75612 4.50986 4.6126 4.5539 4.48157C4.73008 3.9075 5.1202 3.49567 5.56694 3.12752C5.84379 2.89665 6.09548 2.6221 6.41637 2.4661C6.42267 2.45986 6.44784 2.47858 6.45413 2.47858C6.46671 2.48482 6.4793 2.49106 6.49188 2.4973C6.51705 2.51602 6.53593 2.53474 6.54851 2.5597C6.57368 2.5909 6.57997 2.63458 6.59885 2.66577C6.61143 2.69697 6.62402 2.73441 6.6366 2.76561C6.66177 2.83425 6.68694 2.89665 6.70581 2.96529C6.71211 2.97777 6.7121 2.98401 6.7184 2.99025C6.7184 2.99649 6.72469 3.00273 6.72469 3.00273C6.72469 3.00273 6.73727 3.00897 6.74357 3.00897C6.76873 3.01521 6.7939 3.02768 6.81907 3.03392C6.82536 3.03392 6.7939 3.2024 6.7939 3.21488V3.24608C6.7939 3.27104 6.78761 3.30224 6.78761 3.3272C6.78132 3.38336 6.78132 3.43951 6.77503 3.49567C6.77503 3.51439 6.76873 3.53935 6.77503 3.55807C6.78132 3.57679 6.78761 3.58927 6.7939 3.60799C6.84424 3.70783 6.86941 4.08222 6.86941 4.08222C6.86941 4.08222 6.95121 3.87006 6.94491 3.85758C6.93862 3.83886 6.93862 3.82638 6.93233 3.80766C6.92604 3.77646 6.91975 3.73903 6.91345 3.70783C6.90716 3.66415 6.90087 3.62047 6.89458 3.57055C6.89458 3.55183 6.88829 3.53935 6.88829 3.52063C6.88829 3.50815 6.88199 3.50191 6.88829 3.48943C6.89458 3.47071 6.90087 3.45199 6.91345 3.43951C6.91975 3.42079 6.93233 3.40208 6.93862 3.38336C6.93862 3.38336 6.97637 3.3896 6.98267 3.39584C6.99525 3.40208 7.00784 3.40831 7.02042 3.40831C7.05817 3.41455 7.08963 3.42703 7.12109 3.44575C7.13368 3.45199 7.14626 3.45823 7.15885 3.47071C7.16514 3.48319 7.17143 3.49567 7.17772 3.50815C7.20918 3.58927 7.24064 3.67663 7.2784 3.75775C7.28469 3.77023 7.29098 3.78894 7.30357 3.80142C7.31615 3.8139 7.32873 3.82014 7.34132 3.82638C7.42312 3.8763 7.51121 3.92622 7.593 3.97614C7.55525 3.91374 7.49862 3.86382 7.44829 3.80142C7.37278 3.70783 7.32244 3.59551 7.30357 3.47695C7.29727 3.45199 7.29727 3.42703 7.29727 3.40207C7.23435 3.3584 7.17143 3.32096 7.10851 3.27728C7.08334 3.25856 7.05188 3.24608 7.033 3.22736C7.02671 3.22112 7.02042 3.20864 7.02042 3.19616C7.01413 3.17744 7.00784 3.16496 7.00154 3.14624C6.97637 3.0776 6.9575 3.00897 6.93233 2.94657C6.92604 2.92785 6.91975 2.90289 6.90087 2.89665C6.89458 2.89041 6.88199 2.89041 6.86941 2.88417C6.85053 2.87169 6.84424 2.84673 6.83795 2.82801C6.83166 2.80305 6.82536 2.77185 6.81907 2.74689C6.81278 2.72817 6.80649 2.70321 6.80649 2.67825V2.6533C6.80019 2.60962 6.78761 2.56594 6.78761 2.52226C6.78132 2.40994 6.80649 2.29762 6.86941 2.19779C8.78851 1.917 10.7265 1.68612 12.4128 3.15248V4.02606C12.4128 4.05102 12.4128 4.08222 12.4002 4.10718C12.3939 4.11342 12.3939 4.11966 12.3876 4.13214C12.3813 4.15085 12.375 4.16957 12.3624 4.18205C12.3436 4.21325 12.3247 4.24445 12.2995 4.28189C12.2744 4.31933 12.2492 4.35677 12.2366 4.40045C12.2429 4.39421 12.2492 4.39421 12.2555 4.38797L12.2744 4.36925C12.2869 4.35677 12.3058 4.34429 12.3184 4.33805C12.3499 4.31933 12.375 4.29437 12.4002 4.26941C12.4128 4.25693 12.4191 4.24445 12.4317 4.22573C12.4442 4.20701 12.4568 4.17581 12.4694 4.15709C12.4883 4.13838 12.5009 4.10718 12.5072 4.07598C12.5135 4.0635 12.5197 4.05726 12.5197 4.04478C12.526 4.0323 12.526 4.01982 12.5323 4.0011C12.5386 3.9699 12.5449 3.94494 12.5512 3.91374C12.5764 3.78894 12.5827 3.66415 12.6015 3.53935C12.6078 3.48943 12.6204 3.44575 12.633 3.39584C13.1553 3.80142 13.6964 4.15709 13.7719 4.86844C13.8348 5.46746 13.9418 6.054 14.1117 6.63431C14.162 6.80278 14.206 6.9775 14.206 7.15221C14.206 8.31906 14.2627 9.47967 14.0739 10.6403C13.9732 11.258 13.9795 11.9007 13.9732 12.531C13.9732 13.2049 13.9355 13.8788 13.8726 14.5464C13.8096 15.2016 13.8096 15.8505 13.9732 16.487C14.0613 16.824 14.0047 17.1609 13.9669 17.5041C13.8914 18.1718 13.86 18.8457 13.8159 19.5196C13.8033 19.6818 13.8096 19.8503 13.7404 20.025C10.3175 19.8378 6.90087 19.6506 3.46536 19.4572C3.46536 19.4572 3.45278 19.3511 3.45278 19.3448C3.44649 19.3012 3.4402 19.2575 3.4339 19.2138C3.42132 19.1265 3.41503 19.0453 3.40873 18.958C3.40244 18.8706 3.40873 18.7895 3.41503 18.7084V18.6772C3.41503 18.646 3.42132 18.6085 3.42761 18.5836C3.4339 18.5524 3.4402 18.5149 3.44649 18.4837C3.46536 18.4089 3.48424 18.334 3.5157 18.2591C3.52199 18.2466 3.52199 18.2404 3.52829 18.2279C3.53458 18.2217 3.54716 18.2154 3.55975 18.2092C3.72334 18.1468 3.88064 18.0844 4.04424 18.022C4.06312 18.0158 4.06941 17.9908 4.08199 17.9721C4.09458 17.9534 4.10716 17.9346 4.12604 17.9159C4.13862 17.9034 4.1575 17.891 4.17008 17.8785C4.19525 17.8535 4.20784 17.8223 4.22042 17.7911C4.24559 17.7412 4.27076 17.6851 4.28963 17.6351C4.30222 17.6102 4.3148 17.5852 4.32109 17.5665C4.32109 17.5603 4.32109 17.554 4.32739 17.5478C4.34626 17.5166 4.39031 17.4916 4.41548 17.4729C4.47211 17.4292 4.52244 17.3793 4.5602 17.3231C4.50986 17.3481 4.47211 17.3793 4.42177 17.4105C4.40289 17.423 4.37772 17.4355 4.35255 17.4417C4.34626 17.4417 4.33997 17.4417 4.32739 17.4479C4.32109 17.4479 4.32109 17.4542 4.32109 17.4542C4.30851 17.4667 4.29593 17.4854 4.28334 17.5041C4.25817 17.5415 4.233 17.579 4.20784 17.6164C4.17637 17.6601 4.14491 17.7038 4.11345 17.7537C4.08199 17.8036 4.06312 17.8535 4.01278 17.8785C4.0002 17.8847 3.98132 17.891 3.96244 17.8972C3.80514 17.9471 3.64154 18.0033 3.48424 18.0532C3.45278 18.0657 3.42132 18.0719 3.38986 18.0969V18.0345C3.39615 18.0033 3.38986 17.9721 3.39615 17.9471V17.8223C3.39615 17.735 3.38986 17.6539 3.38986 17.5665C3.38357 17.398 3.37098 17.2295 3.36469 17.0673C3.31435 16.7553 3.30806 16.4308 3.35211 16.1064ZM3.21368 20.156C3.30177 20.0874 3.41503 20.1061 3.5157 20.1123C5.53548 20.2247 7.55525 20.3307 9.57503 20.4431C10.8964 20.5179 12.2177 20.5928 13.5454 20.6615C13.6083 20.6677 13.6712 20.6802 13.7404 20.6864C13.8663 20.936 13.9669 21.1918 14.0424 21.5038C10.1854 21.2542 6.35975 21.0109 2.46491 20.7613C2.72918 20.4992 2.98087 20.337 3.21368 20.156ZM14.2438 24.3305C13.9606 24.3742 13.6838 24.3367 13.4258 24.3055C13.4132 24.3055 13.4006 24.293 13.3944 24.2868C13.3818 24.2806 13.3755 24.2743 13.3629 24.2618C13.344 24.2494 13.3251 24.2306 13.3063 24.2119C13.2685 24.1745 13.2433 24.1246 13.2056 24.0871C13.193 24.0746 13.1741 24.0622 13.1678 24.0497C13.1553 24.0247 13.149 23.9998 13.1427 23.9748C13.1427 23.9686 13.1427 23.9623 13.1364 23.9498C13.1301 23.9436 13.1238 23.9374 13.1238 23.9249C13.0923 23.8874 13.0672 23.85 13.0483 23.8063C13.042 23.7938 13.042 23.7751 13.042 23.7626C13.0483 23.7252 13.0294 23.6878 13.0168 23.6566C13.0105 23.6254 13.0042 23.6004 12.9979 23.5692C12.9979 23.563 12.9917 23.5505 12.9854 23.5443C12.9728 23.5255 12.9539 23.5131 12.935 23.5006C12.891 23.4507 12.8469 23.407 12.8029 23.3633C12.784 23.3446 12.7651 23.3321 12.7463 23.3196C12.7588 23.3259 12.7651 23.3446 12.7777 23.3571C12.784 23.3695 12.7966 23.382 12.8092 23.3945C12.8281 23.4195 12.8469 23.4444 12.8595 23.4819C12.8595 23.4943 12.8721 23.5131 12.8784 23.5255C12.8973 23.563 12.9099 23.5942 12.9161 23.6316C12.9287 23.6815 12.935 23.7314 12.935 23.7814C12.9413 23.825 12.9413 23.875 12.9476 23.9186C12.9476 23.9186 12.9791 23.9311 12.9854 23.9311C12.9917 23.9374 12.9917 23.9498 12.9917 23.9623C13.0042 23.9935 13.0231 24.0247 13.042 24.0559C13.0483 24.0684 13.0546 24.0809 13.0609 24.0934V24.1994C13.0609 24.2119 13.0609 24.2306 13.0546 24.2431C13.042 24.2618 13.0168 24.2743 13.0231 24.2993C12.9979 24.2993 12.9602 24.3055 12.935 24.2993C12.9287 24.2993 12.9224 24.2993 12.9161 24.293C12.8721 24.2868 12.8344 24.2868 12.7903 24.2868C12.7085 24.2806 12.6267 24.2743 12.5449 24.2743C11.8339 24.2306 11.1229 24.1807 10.4119 24.137C9.70087 24.0934 8.98986 24.0434 8.27885 23.9998C7.56784 23.9561 6.85682 23.9062 6.14581 23.8625C5.4348 23.8188 4.72379 23.7689 4.01278 23.7252C3.65413 23.7002 3.30177 23.6815 2.94312 23.6566C2.76694 23.6441 2.58446 23.6316 2.40829 23.6254C2.3202 23.6191 2.23211 23.6129 2.14402 23.6067C2.12514 23.6067 1.88604 23.5942 1.88604 23.5879V22.9889L1.89233 22.9827C1.89862 22.9764 1.89862 22.9764 1.90491 22.9702C1.91121 22.9577 1.9175 22.9515 1.92379 22.939C1.94267 22.914 1.95525 22.8953 1.97413 22.8704C1.993 22.8454 2.01817 22.8204 2.03705 22.7955C2.04334 22.783 2.04963 22.7768 2.05593 22.7643C2.06851 22.7518 2.08739 22.7393 2.09997 22.7331C2.11885 22.7206 2.13772 22.7144 2.1566 22.7019C2.19435 22.6832 2.23211 22.6644 2.27615 22.652C2.30761 22.6395 2.33907 22.6332 2.37053 22.6395C2.3957 22.6457 2.42087 22.6582 2.43975 22.6769C2.50896 22.7268 2.58446 22.7768 2.66626 22.7955C2.68514 22.8017 2.69143 22.783 2.70402 22.7768C2.73548 22.7456 2.77323 22.7206 2.80469 22.7019C2.81098 22.6956 2.82357 22.6894 2.82986 22.6894C2.84873 22.6769 2.86761 22.6707 2.88649 22.6582C2.96199 22.627 3.04379 22.6208 3.12559 22.6145C3.06896 22.5958 3.00604 22.5833 2.93682 22.5771C2.89907 22.5771 2.86132 22.5771 2.82986 22.5958C2.82357 22.602 2.81727 22.6083 2.81727 22.6083C2.81098 22.6145 2.7984 22.6208 2.79211 22.627L2.73548 22.6644C2.72918 22.6644 2.72918 22.6707 2.72289 22.6707C2.71031 22.6769 2.69772 22.6832 2.69143 22.6956C2.68514 22.7019 2.66626 22.7144 2.65368 22.7144C2.64739 22.7144 2.6348 22.7081 2.62222 22.7019C2.61593 22.6956 2.60334 22.6956 2.59705 22.6894C2.57817 22.6769 2.5593 22.6644 2.54671 22.6582C2.49637 22.6208 2.44604 22.5708 2.3957 22.5272C2.38941 22.5209 2.38312 22.5209 2.37682 22.5147H2.35166C2.33278 22.5209 2.3139 22.5209 2.29503 22.5272C2.28244 22.5272 2.27615 22.5334 2.26357 22.5334H2.24469C2.22581 22.5334 2.20694 22.5396 2.18806 22.5396C2.16289 22.5459 2.13143 22.5521 2.10626 22.5584C2.02446 22.5771 1.94896 22.5958 1.86716 22.6208V21.3666C5.9948 21.6286 10.1099 21.8969 14.2438 22.159V24.3305ZM13.0672 2.95905L12.8847 2.70321H12.8029C12.7903 2.70321 12.784 2.69073 12.7714 2.69073L12.5827 2.54098C12.4568 2.44114 12.3247 2.34754 12.1926 2.26019C11.9283 2.07923 11.6514 1.91076 11.3557 1.77348C11.2236 1.761 11.1166 1.6986 10.9656 1.605C11.1292 1.62996 11.2424 1.64868 11.3557 1.6674C11.7458 1.66116 12.1108 1.78596 12.482 1.89828C12.7714 1.98563 13.0609 2.07923 13.3629 2.10419C13.8222 2.13539 14.1809 2.37874 14.5395 2.6221C14.8227 2.81553 14.917 3.13376 15.0051 3.43327C15.0681 3.66415 14.8478 3.76399 14.7094 3.89502V3.91998C14.7094 3.93246 14.7157 3.94494 14.7157 3.95742C14.722 3.98238 14.7346 4.0011 14.7409 4.02606C14.766 4.07598 14.7912 4.11966 14.8101 4.16957C14.8227 4.19453 14.829 4.21949 14.8353 4.24445C14.8415 4.26941 14.8478 4.30061 14.8415 4.32557C14.8415 4.33805 14.8227 4.35053 14.8164 4.35677C14.7786 4.40669 14.7346 4.45661 14.6968 4.50029L14.9611 4.41293C14.98 4.39421 14.9926 4.37549 15.0114 4.36301C15.0303 4.35053 15.0492 4.33181 15.0681 4.31933C15.0492 4.30685 15.0492 4.30061 15.0492 4.28189C15.0429 4.25693 15.0366 4.22573 15.0303 4.20077C15.024 4.17581 15.0177 4.15085 15.0114 4.1259C15.0114 4.11342 15.0051 4.10094 15.0051 4.08846C15.0051 4.08222 14.9926 4.05726 14.9988 4.05102C15.0681 3.91374 15.2191 3.88878 15.2946 3.80142C15.7602 3.83262 16.0182 4.07598 16.1503 4.49405C16.3202 5.02443 16.3642 5.58602 16.5215 6.1164C16.7921 7.06486 16.6222 8.00083 16.553 8.94305C16.5153 9.48591 16.5719 10.0413 16.4649 10.5779C16.4209 10.7838 16.3705 10.9772 16.2069 11.0958C16.1503 11.3267 16.2006 11.5388 16.1881 11.751C16.1629 11.8134 16.1063 11.8633 16.0559 11.907C16.0119 11.9506 15.9615 11.9881 15.9112 12.0255C15.9112 12.0255 15.9112 12.0255 15.9049 12.0318C15.8609 12.063 15.8105 12.0942 15.7728 12.1316C15.7539 12.1503 15.735 12.169 15.7161 12.1878C15.6973 12.2065 15.6721 12.219 15.6469 12.2377C15.6029 12.2626 15.5588 12.2938 15.5148 12.325C15.5022 12.3375 15.4833 12.3438 15.477 12.3625L15.4519 12.3874C15.4456 12.3937 15.433 12.4062 15.4267 12.4124C15.4204 12.4186 15.4141 12.4249 15.4141 12.4311C15.4141 12.4374 15.4204 12.4374 15.4204 12.4436C15.4519 12.481 15.4645 12.5372 15.4896 12.5809C15.4959 12.5933 15.5085 12.6058 15.5148 12.6245C15.5211 12.6308 15.5211 12.637 15.5211 12.6495C15.5337 12.6745 15.54 12.6994 15.54 12.7244V12.7618C15.5337 12.7868 15.5463 12.8117 15.5274 12.8305C15.5022 12.8554 15.4708 12.8804 15.4456 12.9053C15.433 12.9178 15.4204 12.9303 15.4078 12.9365C15.3827 12.9615 15.3512 12.9802 15.326 13.0052C15.3197 13.0114 15.3135 13.0114 15.3135 13.0177C15.3072 13.0239 15.3072 13.0364 15.3135 13.0489C15.3323 13.1861 15.3512 13.3296 15.3701 13.4669C15.3701 13.4856 15.3764 13.5106 15.3764 13.5356C15.3701 13.5543 15.3701 13.573 15.3701 13.598C15.3701 13.6541 15.3764 13.7103 15.3827 13.7602L15.5022 13.1799C15.5903 13.0177 15.8105 12.9865 15.8672 12.8242C15.8672 12.6807 15.735 12.6433 15.691 12.5185C15.9238 12.35 16.1629 12.1753 16.4272 11.9818C16.4335 11.857 16.446 11.7073 16.4523 11.5513C16.5404 11.57 16.553 11.6387 16.5593 11.6948C16.6033 12.5372 16.811 13.3796 16.6285 14.2282C16.5656 14.5339 16.4586 14.8272 16.4209 15.133C16.3202 15.9941 16.4523 16.8489 16.4335 17.7038C16.4209 18.1343 16.4775 18.5711 16.3328 19.0204C15.7036 19.3448 15.0681 19.6381 14.3822 19.9626C14.4137 19.582 14.4263 19.245 14.464 18.9081C14.5206 18.3652 14.4955 17.8098 14.615 17.2732C14.6654 17.0423 14.6465 16.7928 14.5899 16.5619C14.3948 15.8131 14.4011 15.0643 14.4955 14.3093C14.5961 13.4856 14.571 12.6557 14.5836 11.8258C14.5961 10.996 14.722 10.1785 14.766 9.34864C14.8101 8.4813 14.8856 7.60772 14.7346 6.75286C14.615 6.07272 14.42 5.40506 14.3382 4.71244C14.2753 4.20077 14.0173 3.77646 13.6146 3.44575C13.4636 3.32096 13.3251 3.18992 13.1741 3.05888C13.1364 3.02769 13.1049 2.99649 13.0672 2.95905C13.0609 2.95281 13.0546 2.95281 13.0546 2.94657C13.042 2.93409 13.042 2.92161 13.0357 2.90289L13.0672 2.95905ZM16.3768 20.0125C16.3768 20.0125 16.3831 20.0187 16.3894 20.0187C16.3957 20.0187 16.3957 20.0187 16.402 20.025C16.4146 20.025 16.4209 20.0312 16.4272 20.0375C16.4397 20.0499 16.446 20.0624 16.4523 20.0749C16.4523 20.0936 16.4586 20.1123 16.4586 20.1373C16.4586 20.181 16.4649 20.2309 16.4586 20.2746C16.4586 20.2995 16.4586 20.3183 16.4523 20.3432V20.3682C16.4523 20.3807 16.4649 20.3807 16.4775 20.3869C16.4964 20.3931 16.509 20.4119 16.5153 20.4243C16.5215 20.4368 16.5278 20.4493 16.5215 20.4618C16.5215 20.4743 16.5153 20.4867 16.509 20.493C16.4964 20.5179 16.4775 20.5304 16.4523 20.5429C16.3957 20.5679 16.3391 20.5991 16.2887 20.6303C15.7854 20.8923 15.282 21.1606 14.7535 21.4352C14.615 21.1794 14.5206 20.9235 14.4263 20.6303C15.1247 20.3058 15.8168 19.9813 16.5153 19.6506C16.7481 19.7941 16.8928 20.0125 17.0627 20.1997C16.9683 20.3058 16.8487 20.337 16.7292 20.3931C16.7166 20.3869 16.704 20.3807 16.6914 20.3744C16.6788 20.3682 16.66 20.3557 16.6474 20.3495C16.6348 20.3432 16.6222 20.3307 16.6033 20.3307C16.5845 20.3245 16.5593 20.312 16.5467 20.2995C16.5404 20.2933 16.5404 20.2871 16.5404 20.2746C16.5341 20.2496 16.5278 20.2309 16.5278 20.2059C16.5215 20.1747 16.5153 20.1498 16.5027 20.1186C16.4964 20.0936 16.4838 20.0624 16.4775 20.0375L16.3768 20.0125ZM16.8047 21.7035V21.6099C16.8047 21.5912 16.8047 21.5662 16.8173 21.5475C16.8236 21.535 16.8236 21.5288 16.8299 21.5225C16.8299 21.5163 16.8361 21.5163 16.8361 21.5101C16.855 21.4789 16.8739 21.4477 16.8991 21.4165C17.006 21.2917 17.069 21.1482 17.0564 20.9734C17.1256 20.9235 17.1948 20.8674 17.3144 20.8736C17.3584 21.4851 17.3269 22.1216 17.3081 22.7705C16.5153 23.2385 15.7224 23.7065 14.8982 24.187V22.0717C15.54 21.7347 16.1755 21.404 16.8173 21.0733C16.8361 21.0982 16.8487 21.1294 16.855 21.1606C16.8613 21.1794 16.855 21.2043 16.855 21.223C16.855 21.2355 16.8487 21.2418 16.8424 21.2542C16.8424 21.2605 16.8361 21.2667 16.8299 21.2792C16.8236 21.2854 16.811 21.2979 16.8047 21.3042C16.7921 21.3104 16.7858 21.3229 16.7732 21.3354C16.7606 21.3478 16.7481 21.3666 16.7418 21.379C16.7355 21.3853 16.7292 21.3915 16.7292 21.404C16.7229 21.4102 16.7166 21.4227 16.7166 21.4352C16.6977 21.4664 16.6788 21.5038 16.6537 21.535C16.6411 21.5475 16.6285 21.5662 16.6285 21.5849C16.6285 21.5912 16.6285 21.5974 16.6348 21.6037V21.847C16.6348 21.8907 16.6411 21.9281 16.6411 21.9718C16.6411 22.003 16.6348 22.0467 16.6159 22.0717L16.597 22.0904C16.597 22.0904 16.5908 22.0966 16.5908 22.1029C16.5908 22.1091 16.5845 22.1091 16.5782 22.1153C16.5341 22.1652 16.4775 22.2027 16.4209 22.2401C16.4586 22.2339 16.4964 22.2276 16.5278 22.2089C16.553 22.1964 16.5782 22.1777 16.6096 22.1653C16.6159 22.1653 16.6222 22.1528 16.6348 22.1528C16.6348 22.1528 16.6348 22.1528 16.6411 22.1528C16.6537 22.1341 16.66 22.1153 16.6726 22.0904C16.6788 22.0841 16.6788 22.0717 16.6851 22.0592C16.6914 22.0467 16.6914 22.0405 16.6977 22.028C16.6977 22.0217 16.704 22.0155 16.704 22.0093C16.7103 21.9843 16.7166 21.9593 16.7292 21.9344C16.7355 21.9219 16.7355 21.9094 16.7418 21.8969C16.7418 21.8907 16.7481 21.8845 16.7481 21.872C16.7481 21.8595 16.7481 21.847 16.7544 21.8408C16.7544 21.8283 16.7606 21.8158 16.7732 21.8096C16.7795 21.8096 16.7795 21.8096 16.7858 21.8096L16.8047 21.7035Z" fill="#E0E3BD"/>
<path d="M13.0672 2.95905L12.8847 2.70321H12.8029C12.7903 2.70321 12.784 2.69073 12.7714 2.69073L12.5827 2.54098C12.4568 2.44114 12.3247 2.34754 12.1926 2.26019C11.9283 2.07923 11.6514 1.91076 11.3557 1.77348C11.2236 1.761 11.1166 1.6986 10.9656 1.605C11.1292 1.62996 11.2424 1.64868 11.3557 1.6674C11.7458 1.66116 12.1108 1.78596 12.482 1.89828C12.7714 1.98563 13.0609 2.07923 13.3629 2.10419C13.8222 2.13539 14.1809 2.37874 14.5395 2.6221C14.8227 2.81553 14.917 3.13376 15.0051 3.43327C15.0681 3.66415 14.8478 3.76399 14.7094 3.89502V3.91998C14.7094 3.93246 14.7157 3.94494 14.7157 3.95742C14.722 3.98238 14.7346 4.0011 14.7409 4.02606C14.766 4.07598 14.7912 4.11966 14.8101 4.16957C14.8227 4.19453 14.829 4.21949 14.8353 4.24445C14.8415 4.26941 14.8478 4.30061 14.8415 4.32557C14.8415 4.33805 14.8227 4.35053 14.8164 4.35677C14.7786 4.40669 14.7346 4.45661 14.6968 4.50029L14.9611 4.41293C14.98 4.39421 14.9926 4.37549 15.0114 4.36301C15.0303 4.35053 15.0492 4.33181 15.0681 4.31933C15.0492 4.30685 15.0492 4.30061 15.0492 4.28189C15.0429 4.25693 15.0366 4.22573 15.0303 4.20077C15.024 4.17581 15.0177 4.15085 15.0114 4.1259C15.0114 4.11342 15.0051 4.10094 15.0051 4.08846C15.0051 4.08222 14.9926 4.05726 14.9988 4.05102C15.0681 3.91374 15.2191 3.88878 15.2946 3.80142C15.7602 3.83262 16.0182 4.07598 16.1503 4.49405C16.3202 5.02443 16.3642 5.58602 16.5215 6.1164C16.7921 7.06486 16.6222 8.00083 16.553 8.94305C16.5153 9.48591 16.5719 10.0413 16.4649 10.5779C16.4209 10.7838 16.3705 10.9772 16.2069 11.0958C16.1503 11.3267 16.2006 11.5388 16.1881 11.751C16.1629 11.8134 16.1063 11.8633 16.0559 11.907C16.0119 11.9506 15.9615 11.9881 15.9112 12.0255C15.9112 12.0255 15.9112 12.0255 15.9049 12.0318C15.8609 12.063 15.8105 12.0942 15.7728 12.1316C15.7539 12.1503 15.735 12.169 15.7161 12.1878C15.6973 12.2065 15.6721 12.219 15.6469 12.2377C15.6029 12.2626 15.5588 12.2938 15.5148 12.325C15.5022 12.3375 15.4833 12.3438 15.477 12.3625L15.4519 12.3874C15.4456 12.3937 15.433 12.4062 15.4267 12.4124C15.4204 12.4186 15.4141 12.4249 15.4141 12.4311C15.4141 12.4374 15.4204 12.4374 15.4204 12.4436C15.4519 12.481 15.4645 12.5372 15.4896 12.5809C15.4959 12.5933 15.5085 12.6058 15.5148 12.6245C15.5211 12.6308 15.5211 12.637 15.5211 12.6495C15.5337 12.6745 15.54 12.6994 15.54 12.7244V12.7618C15.5337 12.7868 15.5463 12.8117 15.5274 12.8305C15.5022 12.8554 15.4708 12.8804 15.4456 12.9053C15.433 12.9178 15.4204 12.9303 15.4078 12.9365C15.3827 12.9615 15.3512 12.9802 15.326 13.0052C15.3197 13.0114 15.3135 13.0114 15.3135 13.0177C15.3072 13.0239 15.3072 13.0364 15.3135 13.0489C15.3323 13.1861 15.3512 13.3296 15.3701 13.4669C15.3701 13.4856 15.3764 13.5106 15.3764 13.5356C15.3701 13.5543 15.3701 13.573 15.3701 13.598C15.3701 13.6541 15.3764 13.7103 15.3827 13.7602L15.5022 13.1799C15.5903 13.0177 15.8105 12.9865 15.8672 12.8242C15.8672 12.6807 15.735 12.6433 15.691 12.5185C15.9238 12.35 16.1629 12.1753 16.4272 11.9818C16.4335 11.857 16.446 11.7073 16.4523 11.5513C16.5404 11.57 16.553 11.6387 16.5593 11.6948C16.6033 12.5372 16.811 13.3796 16.6285 14.2282C16.5656 14.5339 16.4586 14.8272 16.4209 15.133C16.3202 15.9941 16.4523 16.8489 16.4335 17.7038C16.4209 18.1343 16.4775 18.5711 16.3328 19.0204C15.7036 19.3448 15.0681 19.6381 14.3822 19.9626C14.4137 19.582 14.4263 19.245 14.464 18.9081C14.5206 18.3652 14.4955 17.8098 14.615 17.2732C14.6654 17.0423 14.6465 16.7928 14.5899 16.5619C14.3948 15.8131 14.4011 15.0643 14.4955 14.3093C14.5961 13.4856 14.571 12.6557 14.5836 11.8258C14.5961 10.996 14.722 10.1785 14.766 9.34864C14.8101 8.4813 14.8856 7.60772 14.7346 6.75286C14.615 6.07272 14.42 5.40506 14.3382 4.71244C14.2753 4.20077 14.0173 3.77646 13.6146 3.44575C13.4636 3.32096 13.3251 3.18992 13.1741 3.05888C13.1364 3.02769 13.1049 2.99649 13.0672 2.95905ZM13.0672 2.95905C13.0609 2.95281 13.0546 2.95281 13.0546 2.94657C13.042 2.93409 13.042 2.92161 13.0357 2.90289L13.0672 2.95905ZM16.4775 20.0375C16.4838 20.0624 16.4964 20.0936 16.5027 20.1186C16.5153 20.1498 16.5215 20.1747 16.5278 20.2059C16.5278 20.2309 16.5341 20.2496 16.5404 20.2746C16.5404 20.2871 16.5404 20.2933 16.5467 20.2995C16.5593 20.312 16.5845 20.3245 16.6033 20.3307C16.6222 20.3307 16.6348 20.3432 16.6474 20.3495C16.66 20.3557 16.6788 20.3682 16.6914 20.3744C16.704 20.3807 16.7166 20.3869 16.7292 20.3931C16.8487 20.337 16.9683 20.3058 17.0627 20.1997C16.8928 20.0125 16.7481 19.7941 16.5153 19.6506C15.8168 19.9813 15.1247 20.3058 14.4263 20.6303C14.5206 20.9235 14.615 21.1794 14.7535 21.4352C15.282 21.1606 15.7854 20.8923 16.2887 20.6303C16.3391 20.5991 16.3957 20.5679 16.4523 20.5429C16.4775 20.5304 16.4964 20.5179 16.509 20.493C16.5153 20.4867 16.5215 20.4743 16.5215 20.4618C16.5278 20.4493 16.5215 20.4368 16.5153 20.4243C16.509 20.4119 16.4964 20.3931 16.4775 20.3869C16.4649 20.3807 16.4523 20.3807 16.4523 20.3682V20.3432C16.4586 20.3183 16.4586 20.2995 16.4586 20.2746C16.4649 20.2309 16.4586 20.181 16.4586 20.1373C16.4586 20.1123 16.4523 20.0936 16.4523 20.0749C16.446 20.0624 16.4397 20.0499 16.4272 20.0375C16.4209 20.0312 16.4146 20.025 16.402 20.025C16.3957 20.0187 16.3957 20.0187 16.3894 20.0187C16.3831 20.0187 16.3768 20.0125 16.3768 20.0125L16.4775 20.0375ZM16.4775 20.0375L16.3454 19.9875M17.8303 20.0499C17.5094 19.7941 17.2703 19.4634 16.9683 19.1764C16.9872 18.8581 17.0249 18.5711 17.0249 18.2841C17.0186 17.4979 17.069 16.7116 17.006 15.9254C16.9683 15.445 17.1004 14.9832 17.2326 14.5215C17.4905 13.6416 17.3458 12.7369 17.2137 11.8695C17.1193 11.2518 17.1067 10.6528 17.1508 10.0413C17.1948 9.50463 17.2011 8.96801 17.2451 8.43138C17.3018 7.67012 17.371 6.92134 17.1759 6.15384C17.006 5.5049 16.9683 4.82476 16.704 4.20077C16.4964 3.71407 16.4964 3.71407 15.8546 2.87169C15.282 2.27267 15.1939 2.26643 14.7031 1.97315C14.3256 1.74852 13.9544 1.53637 13.495 1.49269C12.9099 1.43653 12.3687 1.18069 11.7899 1.0871C10.7831 0.924862 9.78896 1.01222 8.7948 1.16198C7.46087 1.36789 6.14581 1.62372 5.1202 2.63458C4.6357 3.11504 4.13862 3.57055 3.93098 4.23821C3.87435 4.42541 3.74851 4.58764 3.65413 4.75612C3.21997 5.48618 3.32064 5.81689 3.25772 6.76534C3.29548 6.83398 3.16963 7.24581 3.12559 7.35813C3.06896 7.99459 3.06267 7.589 3.06896 7.86356C3.08784 8.69345 3.09413 9.52335 3.10042 10.347C3.10671 11.0958 3.13817 11.8446 2.99975 12.5809C2.84873 13.3608 2.86132 14.1471 2.85503 14.9333C2.85503 15.108 2.86132 15.289 2.81727 15.4574C2.68514 16.044 2.7166 16.6305 2.74806 17.2171C2.79211 18.0158 2.75435 18.8082 2.84873 19.6256C2.38312 19.9875 1.92379 20.3495 1.45817 20.6989C1.29458 20.8174 1.2002 20.9485 1.2002 21.1606C1.21278 22.0405 1.21278 22.9203 1.21907 23.8001C1.21907 24.0372 1.33233 24.1682 1.57772 24.187C2.7166 24.2556 3.84918 24.3242 4.98177 24.3991C6.45413 24.4927 7.92019 24.5801 9.39255 24.6737C11.06 24.7797 12.7274 24.8921 14.3948 24.9981C14.6213 25.0106 14.829 24.9607 15.024 24.8421C15.8986 24.318 16.7795 23.7938 17.6604 23.2822C17.8744 23.1574 17.9561 22.9951 17.9561 22.7518C17.9624 21.9843 17.9813 21.2168 18.0002 20.4555C18.0002 20.2995 17.9687 20.156 17.8303 20.0499ZM3.35211 16.1064C3.42761 15.5822 3.49682 15.0643 3.48424 14.5339C3.46536 13.8476 3.54716 13.1737 3.64784 12.4998C3.78626 11.5638 3.73593 10.6216 3.71705 9.67935C3.71076 9.33616 3.70446 8.99296 3.71076 8.65601C3.71076 8.56866 3.71705 8.4813 3.72334 8.39394C3.72963 8.34402 3.73593 8.2941 3.73593 8.23794C3.73593 8.21299 3.7548 8.19427 3.77368 8.17555C3.79885 8.14435 3.83031 8.11315 3.85548 8.08195C3.86177 8.07571 3.86806 8.06947 3.88064 8.06323C3.88694 8.06323 3.89952 8.06323 3.90581 8.06947C4.01907 8.11939 4.21413 8.30034 4.22042 8.31282C4.22042 8.31906 4.44694 8.48754 4.44694 8.49378C4.45323 8.50002 4.30851 8.81201 4.30851 8.82449C4.57907 8.82449 4.50986 8.73713 4.73008 8.34402C4.74267 8.31906 4.50986 8.16307 4.50986 8.13187C4.47211 8.09443 4.45952 8.04451 4.44064 8.00083C4.42177 7.94467 4.39031 7.89475 4.35885 7.85108C4.33997 7.82612 4.32109 7.8074 4.30222 7.78244C4.28334 7.76372 4.26446 7.745 4.24559 7.72628C4.233 7.7138 4.22671 7.70132 4.22671 7.6826C4.22042 7.65764 4.20784 7.63892 4.20154 7.61396C4.17637 7.5578 4.15121 7.4954 4.13233 7.43301C4.08828 7.31445 4.05053 7.18965 4.01278 7.06486C3.97503 6.94006 3.93727 6.81526 3.89323 6.69047C3.86806 6.62183 3.84289 6.55943 3.81772 6.49079C3.86177 5.90425 3.97503 5.34266 4.36514 4.86844C4.45323 4.75612 4.50986 4.6126 4.5539 4.48157C4.73008 3.9075 5.1202 3.49567 5.56694 3.12752C5.84379 2.89665 6.09548 2.6221 6.41637 2.4661C6.42267 2.45986 6.44784 2.47858 6.45413 2.47858C6.46671 2.48482 6.4793 2.49106 6.49188 2.4973C6.51705 2.51602 6.53593 2.53474 6.54851 2.5597C6.57368 2.5909 6.57997 2.63458 6.59885 2.66577C6.61143 2.69697 6.62402 2.73441 6.6366 2.76561C6.66177 2.83425 6.68694 2.89665 6.70581 2.96529C6.71211 2.97777 6.7121 2.98401 6.7184 2.99025C6.7184 2.99649 6.72469 3.00273 6.72469 3.00273C6.72469 3.00273 6.73727 3.00897 6.74357 3.00897C6.76873 3.01521 6.7939 3.02768 6.81907 3.03392C6.82536 3.03392 6.7939 3.2024 6.7939 3.21488V3.24608C6.7939 3.27104 6.78761 3.30224 6.78761 3.3272C6.78132 3.38336 6.78132 3.43951 6.77503 3.49567C6.77503 3.51439 6.76873 3.53935 6.77503 3.55807C6.78132 3.57679 6.78761 3.58927 6.7939 3.60799C6.84424 3.70783 6.86941 4.08222 6.86941 4.08222C6.86941 4.08222 6.95121 3.87006 6.94491 3.85758C6.93862 3.83886 6.93862 3.82638 6.93233 3.80766C6.92604 3.77646 6.91975 3.73903 6.91345 3.70783C6.90716 3.66415 6.90087 3.62047 6.89458 3.57055C6.89458 3.55183 6.88829 3.53935 6.88829 3.52063C6.88829 3.50815 6.88199 3.50191 6.88829 3.48943C6.89458 3.47071 6.90087 3.45199 6.91345 3.43951C6.91975 3.42079 6.93233 3.40208 6.93862 3.38336C6.93862 3.38336 6.97637 3.3896 6.98267 3.39584C6.99525 3.40208 7.00784 3.40831 7.02042 3.40831C7.05817 3.41455 7.08963 3.42703 7.12109 3.44575C7.13368 3.45199 7.14626 3.45823 7.15885 3.47071C7.16514 3.48319 7.17143 3.49567 7.17772 3.50815C7.20918 3.58927 7.24064 3.67663 7.2784 3.75775C7.28469 3.77023 7.29098 3.78894 7.30357 3.80142C7.31615 3.8139 7.32873 3.82014 7.34132 3.82638C7.42312 3.8763 7.51121 3.92622 7.593 3.97614C7.55525 3.91374 7.49862 3.86382 7.44829 3.80142C7.37278 3.70783 7.32244 3.59551 7.30357 3.47695C7.29727 3.45199 7.29727 3.42703 7.29727 3.40207C7.23435 3.3584 7.17143 3.32096 7.10851 3.27728C7.08334 3.25856 7.05188 3.24608 7.033 3.22736C7.02671 3.22112 7.02042 3.20864 7.02042 3.19616C7.01413 3.17744 7.00784 3.16496 7.00154 3.14624C6.97637 3.0776 6.9575 3.00897 6.93233 2.94657C6.92604 2.92785 6.91975 2.90289 6.90087 2.89665C6.89458 2.89041 6.88199 2.89041 6.86941 2.88417C6.85053 2.87169 6.84424 2.84673 6.83795 2.82801C6.83166 2.80305 6.82536 2.77185 6.81907 2.74689C6.81278 2.72817 6.80649 2.70321 6.80649 2.67825V2.6533C6.80019 2.60962 6.78761 2.56594 6.78761 2.52226C6.78132 2.40994 6.80649 2.29762 6.86941 2.19779C8.78851 1.917 10.7265 1.68612 12.4128 3.15248V4.02606C12.4128 4.05102 12.4128 4.08222 12.4002 4.10718C12.3939 4.11342 12.3939 4.11966 12.3876 4.13214C12.3813 4.15085 12.375 4.16957 12.3624 4.18205C12.3436 4.21325 12.3247 4.24445 12.2995 4.28189C12.2744 4.31933 12.2492 4.35677 12.2366 4.40045C12.2429 4.39421 12.2492 4.39421 12.2555 4.38797L12.2744 4.36925C12.2869 4.35677 12.3058 4.34429 12.3184 4.33805C12.3499 4.31933 12.375 4.29437 12.4002 4.26941C12.4128 4.25693 12.4191 4.24445 12.4317 4.22573C12.4442 4.20701 12.4568 4.17581 12.4694 4.15709C12.4883 4.13838 12.5009 4.10718 12.5072 4.07598C12.5135 4.0635 12.5197 4.05726 12.5197 4.04478C12.526 4.0323 12.526 4.01982 12.5323 4.0011C12.5386 3.9699 12.5449 3.94494 12.5512 3.91374C12.5764 3.78894 12.5827 3.66415 12.6015 3.53935C12.6078 3.48943 12.6204 3.44575 12.633 3.39584C13.1553 3.80142 13.6964 4.15709 13.7719 4.86844C13.8348 5.46746 13.9418 6.054 14.1117 6.63431C14.162 6.80278 14.206 6.9775 14.206 7.15221C14.206 8.31906 14.2627 9.47967 14.0739 10.6403C13.9732 11.258 13.9795 11.9007 13.9732 12.531C13.9732 13.2049 13.9355 13.8788 13.8726 14.5464C13.8096 15.2016 13.8096 15.8505 13.9732 16.487C14.0613 16.824 14.0047 17.1609 13.9669 17.5041C13.8914 18.1718 13.86 18.8457 13.8159 19.5196C13.8033 19.6818 13.8096 19.8503 13.7404 20.025C10.3175 19.8378 6.90087 19.6506 3.46536 19.4572C3.46536 19.4572 3.45278 19.3511 3.45278 19.3448C3.44649 19.3012 3.4402 19.2575 3.4339 19.2138C3.42132 19.1265 3.41503 19.0453 3.40873 18.958C3.40244 18.8706 3.40873 18.7895 3.41503 18.7084V18.6772C3.41503 18.646 3.42132 18.6085 3.42761 18.5836C3.4339 18.5524 3.4402 18.5149 3.44649 18.4837C3.46536 18.4089 3.48424 18.334 3.5157 18.2591C3.52199 18.2466 3.52199 18.2404 3.52829 18.2279C3.53458 18.2217 3.54716 18.2154 3.55975 18.2092C3.72334 18.1468 3.88064 18.0844 4.04424 18.022C4.06312 18.0158 4.06941 17.9908 4.08199 17.9721C4.09458 17.9534 4.10716 17.9346 4.12604 17.9159C4.13862 17.9034 4.1575 17.891 4.17008 17.8785C4.19525 17.8535 4.20784 17.8223 4.22042 17.7911C4.24559 17.7412 4.27076 17.6851 4.28963 17.6351C4.30222 17.6102 4.3148 17.5852 4.32109 17.5665C4.32109 17.5603 4.32109 17.554 4.32739 17.5478C4.34626 17.5166 4.39031 17.4916 4.41548 17.4729C4.47211 17.4292 4.52244 17.3793 4.5602 17.3231C4.50986 17.3481 4.47211 17.3793 4.42177 17.4105C4.40289 17.423 4.37772 17.4355 4.35255 17.4417C4.34626 17.4417 4.33997 17.4417 4.32739 17.4479C4.32109 17.4479 4.32109 17.4542 4.32109 17.4542C4.30851 17.4667 4.29593 17.4854 4.28334 17.5041C4.25817 17.5415 4.233 17.579 4.20784 17.6164C4.17637 17.6601 4.14491 17.7038 4.11345 17.7537C4.08199 17.8036 4.06312 17.8535 4.01278 17.8785C4.0002 17.8847 3.98132 17.891 3.96244 17.8972C3.80514 17.9471 3.64154 18.0033 3.48424 18.0532C3.45278 18.0657 3.42132 18.0719 3.38986 18.0969V18.0345C3.39615 18.0033 3.38986 17.9721 3.39615 17.9471V17.8223C3.39615 17.735 3.38986 17.6539 3.38986 17.5665C3.38357 17.398 3.37098 17.2295 3.36469 17.0673C3.31435 16.7553 3.30806 16.4308 3.35211 16.1064ZM3.21368 20.156C3.30177 20.0874 3.41503 20.1061 3.5157 20.1123C5.53548 20.2247 7.55525 20.3307 9.57503 20.4431C10.8964 20.5179 12.2177 20.5928 13.5454 20.6615C13.6083 20.6677 13.6712 20.6802 13.7404 20.6864C13.8663 20.936 13.9669 21.1918 14.0424 21.5038C10.1854 21.2542 6.35975 21.0109 2.46491 20.7613C2.72918 20.4992 2.98087 20.337 3.21368 20.156ZM14.2438 24.3305C13.9606 24.3742 13.6838 24.3367 13.4258 24.3055C13.4132 24.3055 13.4006 24.293 13.3944 24.2868C13.3818 24.2806 13.3755 24.2743 13.3629 24.2618C13.344 24.2494 13.3251 24.2306 13.3063 24.2119C13.2685 24.1745 13.2433 24.1246 13.2056 24.0871C13.193 24.0746 13.1741 24.0622 13.1678 24.0497C13.1553 24.0247 13.149 23.9998 13.1427 23.9748C13.1427 23.9686 13.1427 23.9623 13.1364 23.9498C13.1301 23.9436 13.1238 23.9374 13.1238 23.9249C13.0923 23.8874 13.0672 23.85 13.0483 23.8063C13.042 23.7938 13.042 23.7751 13.042 23.7626C13.0483 23.7252 13.0294 23.6878 13.0168 23.6566C13.0105 23.6254 13.0042 23.6004 12.9979 23.5692C12.9979 23.563 12.9917 23.5505 12.9854 23.5443C12.9728 23.5255 12.9539 23.5131 12.935 23.5006C12.891 23.4507 12.8469 23.407 12.8029 23.3633C12.784 23.3446 12.7651 23.3321 12.7463 23.3196C12.7588 23.3259 12.7651 23.3446 12.7777 23.3571C12.784 23.3695 12.7966 23.382 12.8092 23.3945C12.8281 23.4195 12.8469 23.4444 12.8595 23.4819C12.8595 23.4943 12.8721 23.5131 12.8784 23.5255C12.8973 23.563 12.9099 23.5942 12.9161 23.6316C12.9287 23.6815 12.935 23.7314 12.935 23.7814C12.9413 23.825 12.9413 23.875 12.9476 23.9186C12.9476 23.9186 12.9791 23.9311 12.9854 23.9311C12.9917 23.9374 12.9917 23.9498 12.9917 23.9623C13.0042 23.9935 13.0231 24.0247 13.042 24.0559C13.0483 24.0684 13.0546 24.0809 13.0609 24.0934V24.1994C13.0609 24.2119 13.0609 24.2306 13.0546 24.2431C13.042 24.2618 13.0168 24.2743 13.0231 24.2993C12.9979 24.2993 12.9602 24.3055 12.935 24.2993C12.9287 24.2993 12.9224 24.2993 12.9161 24.293C12.8721 24.2868 12.8344 24.2868 12.7903 24.2868C12.7085 24.2806 12.6267 24.2743 12.5449 24.2743C11.8339 24.2306 11.1229 24.1807 10.4119 24.137C9.70087 24.0934 8.98986 24.0434 8.27885 23.9998C7.56784 23.9561 6.85682 23.9062 6.14581 23.8625C5.4348 23.8188 4.72379 23.7689 4.01278 23.7252C3.65413 23.7002 3.30177 23.6815 2.94312 23.6566C2.76694 23.6441 2.58446 23.6316 2.40829 23.6254C2.3202 23.6191 2.23211 23.6129 2.14402 23.6067C2.12514 23.6067 1.88604 23.5942 1.88604 23.5879V22.9889L1.89233 22.9827C1.89862 22.9764 1.89862 22.9764 1.90491 22.9702C1.91121 22.9577 1.9175 22.9515 1.92379 22.939C1.94267 22.914 1.95525 22.8953 1.97413 22.8704C1.993 22.8454 2.01817 22.8204 2.03705 22.7955C2.04334 22.783 2.04963 22.7768 2.05593 22.7643C2.06851 22.7518 2.08739 22.7393 2.09997 22.7331C2.11885 22.7206 2.13772 22.7144 2.1566 22.7019C2.19435 22.6832 2.23211 22.6644 2.27615 22.652C2.30761 22.6395 2.33907 22.6332 2.37053 22.6395C2.3957 22.6457 2.42087 22.6582 2.43975 22.6769C2.50896 22.7268 2.58446 22.7768 2.66626 22.7955C2.68514 22.8017 2.69143 22.783 2.70402 22.7768C2.73548 22.7456 2.77323 22.7206 2.80469 22.7019C2.81098 22.6956 2.82357 22.6894 2.82986 22.6894C2.84873 22.6769 2.86761 22.6707 2.88649 22.6582C2.96199 22.627 3.04379 22.6208 3.12559 22.6145C3.06896 22.5958 3.00604 22.5833 2.93682 22.5771C2.89907 22.5771 2.86132 22.5771 2.82986 22.5958C2.82357 22.602 2.81727 22.6083 2.81727 22.6083C2.81098 22.6145 2.7984 22.6208 2.79211 22.627L2.73548 22.6644C2.72918 22.6644 2.72918 22.6707 2.72289 22.6707C2.71031 22.6769 2.69772 22.6832 2.69143 22.6956C2.68514 22.7019 2.66626 22.7144 2.65368 22.7144C2.64739 22.7144 2.6348 22.7081 2.62222 22.7019C2.61593 22.6956 2.60334 22.6956 2.59705 22.6894C2.57817 22.6769 2.5593 22.6644 2.54671 22.6582C2.49637 22.6208 2.44604 22.5708 2.3957 22.5272C2.38941 22.5209 2.38312 22.5209 2.37682 22.5147H2.35166C2.33278 22.5209 2.3139 22.5209 2.29503 22.5272C2.28244 22.5272 2.27615 22.5334 2.26357 22.5334H2.24469C2.22581 22.5334 2.20694 22.5396 2.18806 22.5396C2.16289 22.5459 2.13143 22.5521 2.10626 22.5584C2.02446 22.5771 1.94896 22.5958 1.86716 22.6208V21.3666C5.9948 21.6286 10.1099 21.8969 14.2438 22.159V24.3305ZM16.8047 21.7035V21.6099C16.8047 21.5912 16.8047 21.5662 16.8173 21.5475C16.8236 21.535 16.8236 21.5288 16.8299 21.5225C16.8299 21.5163 16.8361 21.5163 16.8361 21.5101C16.855 21.4789 16.8739 21.4477 16.8991 21.4165C17.006 21.2917 17.069 21.1482 17.0564 20.9734C17.1256 20.9235 17.1948 20.8674 17.3144 20.8736C17.3584 21.4851 17.3269 22.1216 17.3081 22.7705C16.5153 23.2385 15.7224 23.7065 14.8982 24.187V22.0717C15.54 21.7347 16.1755 21.404 16.8173 21.0733C16.8361 21.0982 16.8487 21.1294 16.855 21.1606C16.8613 21.1794 16.855 21.2043 16.855 21.223C16.855 21.2355 16.8487 21.2418 16.8424 21.2542C16.8424 21.2605 16.8361 21.2667 16.8299 21.2792C16.8236 21.2854 16.811 21.2979 16.8047 21.3042C16.7921 21.3104 16.7858 21.3229 16.7732 21.3354C16.7606 21.3478 16.7481 21.3666 16.7418 21.379C16.7355 21.3853 16.7292 21.3915 16.7292 21.404C16.7229 21.4102 16.7166 21.4227 16.7166 21.4352C16.6977 21.4664 16.6788 21.5038 16.6537 21.535C16.6411 21.5475 16.6285 21.5662 16.6285 21.5849C16.6285 21.5912 16.6285 21.5974 16.6348 21.6037V21.847C16.6348 21.8907 16.6411 21.9281 16.6411 21.9718C16.6411 22.003 16.6348 22.0467 16.6159 22.0717L16.597 22.0904C16.597 22.0904 16.5908 22.0966 16.5908 22.1029C16.5908 22.1091 16.5845 22.1091 16.5782 22.1153C16.5341 22.1652 16.4775 22.2027 16.4209 22.2401C16.4586 22.2339 16.4964 22.2276 16.5278 22.2089C16.553 22.1964 16.5782 22.1777 16.6096 22.1653C16.6159 22.1653 16.6222 22.1528 16.6348 22.1528C16.6348 22.1528 16.6348 22.1528 16.6411 22.1528C16.6537 22.1341 16.66 22.1153 16.6726 22.0904C16.6788 22.0841 16.6788 22.0717 16.6851 22.0592C16.6914 22.0467 16.6914 22.0405 16.6977 22.028C16.6977 22.0217 16.704 22.0155 16.704 22.0093C16.7103 21.9843 16.7166 21.9593 16.7292 21.9344C16.7355 21.9219 16.7355 21.9094 16.7418 21.8969C16.7418 21.8907 16.7481 21.8845 16.7481 21.872C16.7481 21.8595 16.7481 21.847 16.7544 21.8408C16.7544 21.8283 16.7606 21.8158 16.7732 21.8096C16.7795 21.8096 16.7795 21.8096 16.7858 21.8096L16.8047 21.7035Z" stroke="#362745" stroke-width="0.5" stroke-miterlimit="10"/>
<path d="M9.61899 10.8024C9.46798 11.0271 9.45539 11.3328 9.56236 11.5824C9.59382 11.6573 9.63787 11.7259 9.70708 11.7696C9.84551 11.8507 10.0217 11.7759 10.1664 11.701C10.3552 11.6011 10.5502 11.4826 10.6257 11.2829C10.6824 11.1394 10.6572 10.9709 10.588 10.8336C10.5502 10.7463 10.4936 10.6714 10.4307 10.6028C10.3866 10.5591 10.3489 10.5029 10.2797 10.4967C10.1224 10.4717 9.95247 10.5217 9.82034 10.6028C9.73854 10.6589 9.66933 10.7276 9.61899 10.8024Z" fill="#6B00FA" stroke="#362745" stroke-width="0.5" stroke-miterlimit="10"/>
<path d="M6.75632 10.8461C6.70598 10.9335 6.66823 11.0271 6.66193 11.1269C6.64935 11.2954 6.73115 11.4514 6.80665 11.6011C6.81924 11.6323 6.83811 11.6635 6.86328 11.6822C6.88845 11.701 6.91991 11.7072 6.95137 11.7134C7.26598 11.7571 7.59317 11.6323 7.79452 11.389C7.83227 11.339 7.86373 11.2891 7.88261 11.233C7.90778 11.1456 7.90778 11.0583 7.90148 10.9709C7.89519 10.8461 7.88261 10.7026 7.78823 10.6152C7.74418 10.5716 7.68755 10.5404 7.63092 10.5154C7.56171 10.478 7.47991 10.4343 7.40441 10.4093C7.34778 10.3968 7.27856 10.4156 7.22823 10.4343C7.09609 10.478 6.98283 10.5653 6.88845 10.6651C6.86328 10.6963 6.83811 10.7213 6.81295 10.7525C6.80036 10.7712 6.78778 10.7837 6.78148 10.8024C6.77519 10.8087 6.7689 10.8336 6.75632 10.8461Z" fill="#6B00FA" stroke="#362745" stroke-width="0.5" stroke-miterlimit="10"/>
<path d="M7.15884 11.8882C6.68064 11.8882 6.29053 11.5013 6.29053 11.0271C6.29053 10.5529 6.68064 10.166 7.15884 10.166C7.63704 10.166 8.02716 10.5529 8.02716 11.0271C8.02716 11.5013 7.63704 11.8882 7.15884 11.8882ZM7.15884 10.4156C6.81907 10.4156 6.54221 10.6902 6.54221 11.0271C6.54221 11.3641 6.81907 11.6386 7.15884 11.6386C7.49862 11.6386 7.77547 11.3641 7.77547 11.0271C7.77547 10.6902 7.49862 10.4156 7.15884 10.4156Z" fill="#362745"/>
<path d="M9.9523 11.9507C9.4741 11.9507 9.08398 11.5638 9.08398 11.0896C9.08398 10.6154 9.4741 10.2285 9.9523 10.2285C10.4305 10.2285 10.8206 10.6154 10.8206 11.0896C10.8206 11.5638 10.4305 11.9507 9.9523 11.9507ZM9.9523 10.4781C9.61252 10.4781 9.33567 10.7527 9.33567 11.0896C9.33567 11.4266 9.61252 11.7011 9.9523 11.7011C10.2921 11.7011 10.5689 11.4266 10.5689 11.0896C10.5689 10.7527 10.2921 10.4781 9.9523 10.4781Z" fill="#362745"/>
<path d="M6.7562 11.5825C6.66811 11.4515 6.4541 11.3017 6.4541 11.152C6.4541 10.7089 6.66803 10.3533 7.11478 10.3533C7.12107 10.3533 7.44833 10.3533 7.45463 10.3533C7.50496 10.4032 7.5553 10.4469 7.59305 10.4968C7.53642 10.4843 7.48609 10.4781 7.42946 10.4781C7.05822 10.4781 6.74991 10.7776 6.74991 11.152C6.74991 11.3329 6.81912 11.4952 6.93867 11.62L6.7562 11.5825Z" fill="#362745"/>
<path d="M9.75139 11.6949C9.68847 11.6887 9.34866 11.5579 9.28573 11.5454C9.19764 11.4144 9.28573 10.9277 9.28573 10.7655C9.28573 10.3411 9.80172 10.3848 10.2233 10.3599L10.3491 10.5468C10.3114 10.5405 10.2673 10.5343 10.2233 10.5343C9.85206 10.5343 9.54375 10.8338 9.54375 11.2082C9.55004 11.4016 9.62555 11.5701 9.75139 11.6949Z" fill="#362745"/>
</svg>
